<?xml version="1.0" standalone="no"?>
<!DOCTYPE svg PUBLIC "-//W3C//DTD SVG 20010904//EN"
 "http://www.w3.org/TR/2001/REC-SVG-20010904/DTD/svg10.dtd">
<svg version="1.0" xmlns="http://www.w3.org/2000/svg"
 width="3125.000000pt" height="3125.000000pt" viewBox="0 0 3125.000000 3125.000000"
 preserveAspectRatio="xMidYMid meet">

<g transform="translate(0.000000,3125.000000) scale(0.100000,-0.100000)"
fill="#000000" stroke="none">
<path d="M17613 31162 c-34 -5 -60 -50 -74 -125 -12 -63 -17 -72 -78 -135 -49
-50 -85 -76 -141 -102 l-75 -34 -280 2 c-265 2 -292 4 -505 38 -284 45 -361
43 -525 -10 -60 -19 -122 -46 -136 -58 -78 -67 -162 -176 -210 -271 -53 -106
-66 -150 -94 -312 l-17 -100 26 -95 c14 -52 39 -116 56 -143 16 -27 30 -55 30
-62 0 -8 14 -30 31 -50 17 -19 50 -65 73 -100 72 -111 358 -350 526 -440 32
-16 86 -51 121 -77 101 -73 279 -178 304 -178 12 0 30 -9 40 -20 9 -10 37 -27
61 -36 24 -9 44 -20 44 -24 0 -4 26 -21 58 -38 31 -17 85 -53 120 -81 35 -28
71 -51 81 -51 10 0 28 -11 40 -24 13 -14 37 -30 54 -37 18 -7 43 -22 57 -35
14 -13 41 -30 60 -38 94 -39 538 -460 627 -594 48 -71 81 -154 90 -221 3 -25
12 -57 20 -69 22 -36 11 -138 -32 -287 -42 -148 -56 -178 -90 -201 -13 -9 -27
-25 -31 -36 -7 -24 -73 -88 -90 -88 -5 0 -23 -13 -39 -30 -16 -16 -36 -30 -44
-30 -34 0 -93 -22 -114 -43 -26 -26 -252 -83 -382 -96 -49 -5 -103 -15 -120
-21 -16 -6 -104 -18 -195 -26 -91 -8 -246 -28 -345 -44 -98 -17 -205 -30 -237
-30 -34 0 -88 -10 -131 -24 -41 -13 -116 -29 -168 -35 -61 -8 -112 -20 -145
-36 -28 -14 -60 -25 -70 -25 -11 0 -48 -17 -84 -38 -36 -21 -78 -43 -95 -50
-60 -25 -229 -210 -240 -264 -4 -18 -18 -48 -31 -68 -13 -20 -29 -63 -34 -95
-6 -33 -17 -77 -25 -98 -20 -50 -19 -80 6 -211 21 -115 58 -213 84 -222 8 -4
22 -30 31 -59 33 -115 67 -90 63 47 -2 105 16 321 31 347 5 10 16 23 24 30 9
8 21 31 26 53 15 54 96 138 134 138 32 0 63 15 86 41 20 23 140 55 281 75 63
9 130 23 149 31 26 11 107 17 310 24 151 5 298 13 325 19 28 5 84 12 125 15
41 4 93 11 115 16 22 5 114 14 205 19 122 7 188 16 255 35 50 13 109 25 131
25 53 0 202 38 379 96 161 53 201 72 270 124 28 21 62 43 76 49 70 26 328 292
350 361 7 19 31 74 55 121 24 48 46 108 49 135 3 26 16 95 30 154 36 155 40
210 22 251 -9 19 -21 73 -27 121 -12 98 -25 142 -52 177 -10 13 -18 29 -18 36
0 7 -24 46 -54 88 -29 41 -56 87 -60 103 -5 19 -49 70 -124 142 -64 63 -144
140 -177 172 -64 62 -216 163 -262 175 -15 3 -42 20 -60 36 -19 16 -40 29 -49
29 -8 0 -30 16 -50 35 -19 19 -45 35 -57 35 -13 0 -41 13 -63 29 -21 16 -68
41 -103 55 -36 14 -85 42 -109 61 -25 19 -57 35 -70 35 -14 0 -47 14 -73 31
-27 17 -66 33 -88 36 -28 4 -45 14 -60 34 -14 18 -34 30 -58 35 -21 3 -47 15
-59 25 -11 11 -56 34 -100 52 -43 18 -99 47 -123 65 -24 17 -60 35 -80 38 -20
4 -51 20 -69 35 -18 16 -40 29 -50 29 -23 0 -119 65 -132 90 -6 11 -28 29 -50
40 -58 30 -226 194 -280 276 -27 39 -57 77 -69 85 -15 10 -23 32 -31 79 -11
71 -12 242 -2 277 4 12 31 43 60 68 51 43 56 45 117 45 132 0 267 -20 323 -47
49 -24 68 -27 234 -34 100 -4 223 -4 275 0 83 7 98 12 131 38 20 16 52 35 71
41 62 22 118 61 169 117 62 70 96 132 117 215 9 35 23 76 31 92 20 38 18 75
-12 213 -32 155 -47 177 -111 167z"/>
<path d="M13096 28351 c-3 -4 -23 -11 -44 -15 -21 -3 -54 -16 -73 -29 -19 -12
-56 -31 -84 -41 -27 -10 -75 -33 -105 -51 -30 -18 -104 -58 -165 -89 -109 -56
-229 -146 -264 -199 -9 -15 -47 -55 -83 -89 -36 -35 -80 -84 -97 -109 -45 -68
-151 -261 -151 -276 0 -7 -13 -34 -30 -59 -16 -26 -32 -64 -36 -83 -3 -20 -16
-58 -29 -86 -43 -91 -82 -261 -96 -420 -28 -301 -9 -808 32 -890 12 -23 26
-86 34 -150 14 -106 29 -168 46 -191 5 -6 16 -60 24 -120 9 -59 22 -121 30
-138 11 -22 15 -67 15 -176 0 -146 0 -147 -26 -171 -45 -41 -84 -101 -84 -128
0 -14 -8 -48 -17 -74 -14 -39 -25 -52 -52 -63 -19 -8 -55 -34 -81 -58 -116
-109 -291 -152 -465 -116 -33 7 -72 19 -87 26 -16 8 -76 21 -135 29 -60 9
-161 29 -225 45 -64 17 -127 30 -140 30 -13 0 -50 11 -83 25 -33 13 -77 25
-97 25 -20 0 -109 18 -197 40 -231 56 -519 87 -946 100 -5 0 -95 -4 -200 -9
-133 -6 -214 -15 -270 -29 -44 -11 -116 -26 -159 -32 -87 -13 -196 -46 -296
-89 -36 -16 -98 -41 -137 -56 -40 -14 -88 -37 -107 -50 -19 -13 -79 -46 -133
-74 -54 -28 -113 -64 -130 -80 -18 -16 -42 -33 -54 -36 -55 -18 -470 -424
-551 -540 -31 -44 -68 -91 -82 -104 -14 -13 -35 -49 -46 -78 -11 -30 -31 -71
-45 -91 -14 -20 -25 -41 -25 -45 0 -5 -11 -22 -25 -39 -14 -16 -28 -42 -31
-56 -4 -15 -13 -34 -20 -42 -34 -39 -145 -342 -184 -500 -43 -176 -53 -221
-96 -455 -18 -97 -17 -370 2 -507 25 -185 91 -498 119 -573 15 -39 37 -107 50
-153 12 -46 30 -98 38 -115 8 -18 36 -75 61 -128 25 -52 54 -103 66 -114 11
-10 20 -26 20 -37 0 -10 15 -35 34 -55 18 -21 36 -50 40 -65 3 -15 20 -43 36
-62 17 -18 30 -40 30 -47 0 -21 108 -177 162 -234 66 -69 71 -75 98 -115 13
-19 67 -81 121 -136 54 -56 104 -117 112 -135 18 -42 257 -276 331 -323 30
-19 88 -66 128 -103 40 -38 96 -84 123 -103 55 -37 125 -105 125 -120 0 -5 28
-28 63 -52 34 -23 114 -82 177 -132 63 -50 162 -122 220 -160 58 -38 132 -94
165 -124 33 -30 71 -59 85 -66 14 -6 32 -19 40 -29 8 -9 63 -54 121 -100 219
-169 276 -218 298 -257 12 -21 30 -42 41 -45 11 -4 25 -15 30 -26 6 -10 30
-29 53 -40 56 -29 420 -392 440 -439 8 -20 25 -43 38 -52 27 -17 173 -226 209
-298 12 -25 37 -59 55 -77 35 -34 75 -125 75 -171 0 -15 10 -47 22 -72 19 -42
21 -62 21 -285 0 -209 -2 -244 -17 -273 -10 -19 -24 -61 -32 -95 -33 -145 -78
-252 -139 -333 -33 -43 -77 -109 -100 -146 -41 -69 -281 -336 -302 -337 -7 -1
-31 -27 -55 -58 -23 -32 -59 -76 -80 -99 -42 -44 -54 -77 -34 -93 10 -8 20 -6
39 9 14 11 32 20 40 20 9 0 28 10 44 23 26 21 103 55 163 73 34 9 134 78 157
107 10 13 32 28 50 34 49 18 343 303 343 333 0 13 25 46 110 143 30 35 74 101
96 148 23 46 51 93 63 103 11 11 21 24 21 30 0 6 14 40 31 76 16 35 36 90 44
122 7 33 26 74 43 96 31 38 46 86 82 264 26 129 21 364 -11 484 -11 43 -27
106 -34 139 -7 33 -26 87 -43 120 -16 33 -33 78 -37 100 -3 22 -14 54 -24 71
-10 16 -28 60 -40 96 -12 36 -31 74 -41 83 -11 10 -20 23 -20 30 0 6 -38 67
-86 136 -47 68 -93 142 -103 164 -10 22 -25 46 -34 54 -10 7 -17 17 -17 22 0
5 -23 37 -50 72 -28 34 -75 96 -105 137 -59 81 -197 236 -367 414 -60 62 -108
116 -108 120 0 23 -82 120 -229 272 -301 309 -382 400 -486 543 -32 46 -83
105 -112 131 -29 27 -53 52 -53 55 0 4 -38 56 -84 115 -46 59 -89 118 -96 131
-7 13 -25 38 -42 54 -46 47 -137 180 -152 222 -7 21 -36 73 -63 114 -80 123
-193 386 -193 450 0 16 -8 46 -19 67 -22 44 -41 147 -41 224 0 30 -7 77 -16
104 -21 62 -32 390 -15 422 6 11 20 82 31 157 12 81 26 142 34 151 8 8 20 40
26 71 6 32 20 76 30 98 11 22 36 80 56 129 22 51 51 101 69 120 18 17 40 46
49 63 9 18 85 103 169 189 146 150 242 234 269 234 6 0 46 16 88 35 56 25 128
45 283 76 115 22 225 42 245 42 58 2 497 -23 597 -34 135 -14 325 -47 465 -79
69 -16 164 -34 212 -40 48 -6 105 -17 128 -25 23 -8 97 -19 164 -25 67 -5 167
-18 222 -29 175 -34 286 -43 441 -39 127 4 158 9 222 32 41 14 90 26 108 26
18 0 59 10 91 21 31 12 86 28 121 35 66 15 115 36 126 55 4 6 28 20 53 30 65
28 169 115 240 201 34 40 70 78 80 85 11 7 28 34 37 62 9 27 25 62 37 76 11
14 28 51 39 83 10 31 27 82 38 113 28 77 32 340 7 439 -25 96 -66 220 -87 260
-10 19 -23 59 -28 88 -6 29 -25 85 -41 124 -17 38 -30 76 -30 83 0 7 -8 23
-18 36 -10 13 -26 49 -36 79 -10 30 -39 93 -65 140 -29 50 -51 103 -54 128 -3
24 -17 60 -30 80 -27 39 -157 399 -157 433 0 11 -14 52 -30 91 -17 39 -35 102
-40 140 -6 38 -17 82 -24 97 -8 15 -22 65 -30 112 -56 304 -67 641 -28 862 13
70 32 142 42 160 10 18 32 74 49 126 17 53 41 106 55 120 13 14 47 68 75 119
27 51 64 106 80 121 17 16 31 33 31 38 0 6 36 40 80 77 44 36 87 81 96 99 24
47 75 97 99 97 49 0 61 56 19 89 -27 21 -88 29 -98 12z"/>
<path d="M18429 25855 c-30 -16 -73 -70 -84 -105 -8 -26 -11 -30 -101 -125
-32 -33 -64 -72 -73 -86 -18 -28 -107 -110 -221 -201 -91 -74 -140 -105 -193
-124 -23 -8 -48 -21 -57 -28 -8 -7 -32 -19 -52 -25 -20 -7 -49 -21 -63 -33
-18 -14 -51 -23 -108 -30 -49 -6 -104 -20 -137 -35 -50 -23 -72 -27 -240 -34
-102 -4 -201 -13 -220 -19 -19 -5 -118 -15 -220 -20 -102 -6 -239 -18 -305
-27 -154 -20 -407 -77 -454 -101 -20 -11 -57 -23 -81 -27 -25 -4 -63 -17 -86
-30 -23 -14 -64 -26 -96 -28 -30 -3 -73 -14 -95 -26 -22 -11 -103 -45 -180
-75 -151 -59 -202 -82 -259 -121 -20 -14 -47 -25 -60 -25 -12 0 -43 -16 -68
-35 -26 -19 -55 -35 -67 -35 -27 0 -53 -14 -120 -67 -30 -23 -60 -43 -66 -43
-6 0 -31 -15 -55 -33 -24 -18 -54 -39 -68 -48 -14 -9 -47 -37 -74 -62 -28 -25
-63 -48 -80 -51 -39 -8 -124 -73 -172 -132 -22 -25 -50 -56 -62 -68 -13 -11
-36 -34 -50 -51 -15 -16 -40 -41 -55 -55 -103 -93 -188 -188 -197 -221 -5 -20
-19 -44 -30 -54 -11 -10 -20 -24 -20 -31 0 -7 -16 -25 -35 -40 -19 -15 -38
-38 -42 -53 -3 -14 -19 -43 -34 -64 -15 -21 -33 -54 -39 -73 -16 -49 -57 -67
-165 -75 -183 -13 -331 -31 -385 -46 -68 -19 -255 -109 -338 -162 -45 -30 -70
-55 -94 -96 -81 -138 -126 -241 -138 -319 -6 -38 -17 -81 -25 -95 -7 -15 -18
-70 -24 -122 l-10 -94 -70 -66 c-58 -55 -78 -67 -124 -78 -31 -7 -67 -23 -82
-37 -28 -26 -116 -51 -384 -110 -122 -26 -125 -27 -198 -11 -40 9 -109 32
-151 51 -84 38 -308 106 -349 106 -14 0 -50 7 -81 16 -80 24 -258 15 -327 -15
-94 -41 -116 -79 -121 -199 -2 -47 1 -105 6 -131 13 -69 68 -216 97 -258 28
-42 65 -164 88 -291 17 -95 71 -202 139 -279 24 -27 55 -67 70 -90 14 -24 30
-43 35 -43 5 0 11 -18 15 -41 4 -24 17 -51 33 -67 14 -14 27 -36 29 -48 5 -45
16 -63 78 -120 34 -33 88 -83 120 -112 64 -60 87 -63 120 -19 20 27 20 28 1
63 -11 20 -30 43 -42 51 -12 8 -32 35 -43 59 -12 24 -25 44 -30 44 -4 0 -20
34 -34 74 -26 70 -27 79 -16 133 6 32 13 65 16 74 7 24 103 53 147 45 63 -12
87 -42 103 -126 21 -108 130 -293 243 -413 52 -55 114 -101 151 -112 14 -4 34
-19 46 -33 l21 -26 19 29 c23 35 24 107 2 133 -9 9 -21 41 -28 69 -6 29 -21
65 -32 79 -16 20 -23 50 -30 127 -13 139 -7 161 46 192 59 35 137 60 258 84
361 72 591 83 813 37 72 -14 142 -26 157 -26 16 0 63 25 122 65 52 36 99 65
104 65 5 0 26 14 47 30 21 17 46 30 56 30 10 0 53 14 95 30 84 34 253 58 317
46 31 -6 37 -11 42 -39 11 -56 -29 -208 -74 -283 -22 -36 -43 -80 -46 -97 -4
-18 -15 -41 -25 -52 -23 -25 -40 -68 -40 -101 0 -13 -11 -41 -25 -62 -13 -20
-28 -53 -31 -72 -4 -19 -16 -47 -27 -62 -11 -15 -35 -84 -54 -154 -50 -189
-90 -264 -213 -395 -80 -86 -99 -101 -182 -142 -132 -64 -184 -77 -302 -77
-123 1 -170 11 -200 42 -29 32 -108 62 -140 54 -29 -7 -41 -37 -26 -66 6 -11
15 -59 21 -108 9 -68 17 -97 40 -131 16 -25 29 -52 29 -61 0 -10 9 -29 20 -43
11 -14 27 -42 36 -62 14 -34 13 -38 -6 -65 -25 -35 -14 -33 -195 -31 -219 3
-319 43 -379 151 -7 14 -21 39 -30 55 -10 20 -16 55 -16 105 -1 41 -5 109 -10
150 -5 47 -4 96 2 134 9 51 8 64 -7 93 -16 28 -23 33 -55 33 -32 0 -44 -7 -84
-50 -25 -27 -46 -56 -46 -63 0 -8 -7 -20 -16 -28 -34 -28 -54 -87 -54 -158 0
-38 -4 -73 -10 -76 -19 -12 -9 -71 26 -155 19 -47 44 -107 54 -135 10 -27 28
-59 39 -71 12 -13 28 -45 37 -73 9 -32 24 -57 39 -67 13 -9 49 -65 81 -127 31
-61 67 -121 79 -133 13 -13 26 -38 30 -56 8 -38 46 -108 69 -128 9 -7 16 -25
16 -40 0 -15 12 -45 27 -66 26 -37 28 -46 33 -191 5 -151 5 -152 35 -183 36
-37 71 -39 121 -5 20 14 49 25 64 25 31 0 86 38 145 99 21 22 45 41 52 41 7 0
25 11 40 24 73 63 109 94 124 102 17 9 137 123 195 186 61 65 127 173 184 302
80 181 121 247 177 289 27 20 89 77 138 128 65 66 114 106 175 142 102 58 150
94 150 110 1 13 83 77 99 77 6 0 25 13 43 29 18 15 52 38 75 50 65 33 223 194
288 294 l57 89 34 231 c19 128 39 270 44 316 6 46 17 96 25 111 8 15 19 49 26
76 10 39 29 67 93 137 79 86 136 127 211 149 75 22 225 28 415 18 178 -10 208
-14 344 -51 91 -24 183 -57 236 -83 48 -24 97 -47 110 -51 12 -4 43 -20 68
-36 25 -16 62 -32 81 -35 20 -4 42 -15 49 -26 7 -10 18 -18 24 -18 6 0 40 -30
77 -67 37 -38 96 -95 133 -128 64 -59 178 -219 225 -317 110 -229 129 -316
138 -629 7 -232 7 -236 -18 -315 -13 -43 -30 -110 -37 -147 -7 -40 -23 -83
-38 -105 -14 -20 -38 -68 -54 -106 -38 -92 -102 -180 -218 -300 -110 -114
-302 -280 -392 -340 -35 -23 -141 -103 -236 -179 -95 -75 -179 -137 -186 -137
-7 0 -25 -14 -41 -30 -16 -17 -75 -57 -131 -90 -56 -33 -120 -75 -143 -94 -68
-57 -249 -166 -276 -166 -14 0 -41 -14 -62 -34 -21 -18 -83 -59 -138 -90 -55
-32 -111 -68 -125 -82 -15 -13 -50 -31 -79 -40 -29 -8 -69 -30 -89 -48 -20
-19 -86 -58 -147 -89 -60 -30 -127 -67 -148 -81 -21 -14 -44 -26 -51 -26 -7 0
-30 -13 -51 -30 -21 -16 -44 -30 -52 -30 -20 0 -93 -39 -93 -50 0 -5 -27 -17
-61 -26 -33 -9 -79 -31 -102 -48 -50 -36 -241 -142 -347 -192 -41 -20 -77 -39
-80 -43 -3 -5 -32 -18 -64 -30 -33 -12 -71 -30 -85 -40 -14 -11 -64 -33 -111
-51 -47 -18 -100 -44 -118 -57 -50 -37 -135 -79 -175 -87 -35 -7 -214 -91
-267 -126 -14 -9 -47 -25 -75 -35 -60 -22 -224 -103 -246 -122 -9 -7 -46 -22
-83 -32 -36 -10 -83 -30 -104 -44 -20 -15 -82 -43 -137 -63 -143 -52 -216 -85
-245 -110 -14 -12 -41 -25 -60 -29 -19 -4 -64 -23 -99 -41 -35 -19 -71 -34
-79 -34 -8 0 -35 -11 -61 -24 -25 -13 -86 -38 -136 -56 -49 -17 -153 -62 -230
-100 -160 -78 -243 -113 -475 -200 -197 -75 -370 -149 -370 -160 0 -4 -19 -10
-42 -14 -23 -4 -65 -20 -94 -36 -28 -17 -58 -30 -67 -30 -8 0 -48 -17 -89 -39
-40 -21 -120 -59 -178 -85 -58 -25 -128 -64 -156 -85 -29 -21 -67 -42 -85 -46
-40 -9 -89 -32 -89 -43 0 -4 -19 -13 -43 -19 -23 -7 -55 -21 -69 -33 -15 -11
-64 -39 -109 -62 -46 -23 -92 -51 -103 -63 -22 -22 -136 -101 -212 -145 -24
-14 -54 -35 -66 -47 -13 -11 -42 -31 -66 -42 -24 -12 -65 -44 -90 -70 -26 -27
-90 -83 -142 -126 -107 -88 -255 -236 -360 -358 -39 -45 -83 -97 -99 -115 -16
-18 -32 -45 -36 -59 -3 -14 -21 -44 -39 -67 -68 -84 -156 -254 -156 -300 0 -8
-7 -19 -15 -26 -20 -16 -59 -145 -92 -300 -19 -93 -26 -157 -27 -250 -1 -166
19 -366 45 -443 12 -34 25 -89 29 -121 6 -39 20 -77 41 -110 l32 -51 4 -260
c1 -143 7 -312 13 -375 5 -63 14 -205 20 -315 23 -463 31 -587 50 -720 11 -77
24 -223 30 -325 6 -102 17 -216 25 -255 8 -38 20 -119 25 -180 13 -133 103
-846 131 -1035 11 -74 29 -168 40 -208 11 -39 24 -121 29 -182 6 -72 16 -125
29 -155 12 -28 25 -89 31 -151 6 -58 20 -128 31 -156 11 -28 38 -152 60 -277
22 -124 51 -259 64 -299 14 -40 25 -81 25 -93 0 -37 31 -169 50 -215 11 -25
25 -75 30 -112 6 -37 17 -77 25 -88 8 -12 21 -48 29 -80 8 -33 27 -92 41 -133
14 -41 25 -85 25 -98 0 -13 14 -50 30 -83 17 -33 30 -67 30 -77 0 -52 131
-408 220 -598 11 -22 24 -64 30 -93 11 -58 30 -102 54 -121 8 -7 23 -36 32
-64 26 -79 113 -245 139 -264 21 -16 44 -64 95 -195 10 -26 37 -71 61 -100 24
-30 58 -80 74 -112 17 -32 56 -88 88 -125 31 -36 65 -79 75 -95 63 -105 224
-296 250 -296 5 0 34 -26 62 -57 29 -32 80 -82 114 -111 71 -63 276 -201 320
-217 17 -6 51 -22 76 -37 25 -14 56 -29 70 -33 14 -4 45 -22 70 -41 67 -48
218 -119 296 -138 38 -10 92 -28 119 -41 28 -13 78 -28 112 -34 34 -5 70 -14
80 -19 30 -16 334 -104 393 -114 30 -5 74 -15 96 -23 23 -8 105 -21 182 -29
77 -9 153 -21 167 -26 47 -18 504 -80 670 -90 88 -6 203 -17 255 -25 112 -17
312 -29 815 -52 465 -21 2914 -32 3215 -14 102 6 329 15 505 21 324 9 907 56
1245 100 340 45 957 159 997 185 13 9 52 21 86 26 34 6 85 21 113 33 29 13 71
27 95 31 24 4 67 16 94 26 28 10 79 25 114 34 35 9 88 29 119 46 30 16 61 29
69 29 19 0 111 47 153 78 19 15 60 38 90 53 30 14 90 47 132 72 42 26 82 47
88 47 18 0 134 106 349 320 113 113 219 226 236 250 16 25 46 64 66 88 20 23
49 67 65 96 16 30 39 60 52 65 12 6 31 31 42 57 11 25 38 66 60 91 21 25 44
61 51 81 6 21 21 53 34 72 12 19 26 46 30 60 4 14 20 46 36 71 16 25 29 51 29
58 0 7 14 29 32 50 17 21 51 82 75 137 99 220 193 454 209 515 9 35 22 71 29
79 7 8 20 38 28 66 8 28 24 69 36 92 12 23 28 67 36 98 8 31 19 62 25 68 5 7
15 41 22 77 12 61 15 64 43 66 23 2 34 -4 50 -26 114 -166 210 -259 322 -312
278 -131 552 -166 844 -105 166 34 435 111 473 136 17 11 54 31 82 44 27 13
63 35 80 48 16 12 46 31 66 42 20 10 79 57 130 103 51 47 116 102 144 123 88
66 214 218 273 330 16 30 38 64 50 74 12 11 21 23 21 29 0 5 21 32 46 61 47
52 74 100 74 134 0 10 11 33 24 51 13 17 29 53 35 78 7 25 18 52 26 59 7 8 19
40 26 71 6 32 25 78 40 103 30 49 96 239 105 305 3 22 16 65 29 95 28 66 151
661 160 775 4 44 18 154 32 245 30 200 41 525 24 700 -16 164 -77 520 -100
577 -10 26 -24 82 -31 123 -6 41 -20 93 -30 115 -10 22 -30 69 -43 105 -54
141 -128 284 -175 336 -48 53 -119 134 -167 192 -49 59 -190 160 -286 206 -74
36 -126 52 -247 76 -162 33 -187 33 -307 3 -32 -8 -99 -19 -147 -24 -143 -15
-446 -140 -560 -231 -29 -24 -78 -62 -108 -85 -30 -23 -91 -83 -135 -132 -44
-50 -83 -91 -87 -91 -16 0 -18 46 -8 176 17 218 40 401 61 489 10 44 19 101
19 126 0 26 7 66 15 89 19 55 19 136 -1 191 -9 24 -17 72 -19 106 -2 43 -14
85 -39 141 -19 44 -38 97 -42 117 -4 21 -19 51 -34 69 -15 17 -32 47 -39 67
-6 20 -22 46 -35 58 -14 13 -27 35 -31 49 -12 49 -76 142 -154 225 -43 45 -85
96 -94 113 -25 48 -246 254 -280 261 -16 3 -60 34 -100 72 -40 36 -99 87 -132
112 -126 96 -343 232 -404 254 -20 7 -73 38 -118 68 -45 31 -115 72 -156 91
-40 20 -82 45 -91 55 -10 11 -41 25 -69 31 -57 14 -192 72 -217 95 -8 8 -56
29 -106 48 -50 20 -122 51 -160 70 -38 19 -90 40 -114 47 -25 6 -72 22 -105
35 -33 12 -78 26 -100 30 -22 4 -47 13 -55 20 -8 8 -47 22 -86 33 -39 11 -95
32 -126 46 -30 14 -60 26 -67 26 -6 0 -38 11 -70 24 -31 14 -100 32 -151 41
-51 9 -106 23 -121 30 -15 8 -60 20 -101 26 -40 7 -85 18 -100 25 -15 8 -84
23 -155 34 -70 12 -157 30 -193 40 -36 11 -108 26 -160 34 -52 8 -115 21 -140
30 -25 8 -112 22 -195 30 -82 8 -170 22 -195 31 -29 11 -103 20 -212 25 -91 5
-177 12 -190 15 -14 4 -83 8 -154 9 -71 2 -172 9 -224 16 -235 31 -1278 -23
-1530 -80 -47 -11 -123 -24 -170 -30 -47 -6 -105 -17 -130 -25 -25 -8 -88 -21
-140 -30 -52 -9 -123 -27 -158 -40 -34 -14 -80 -25 -102 -25 -22 0 -73 -11
-113 -25 -39 -14 -139 -44 -220 -66 -81 -22 -174 -53 -205 -68 -56 -28 -164
-67 -250 -91 -24 -6 -52 -20 -62 -30 -10 -10 -36 -22 -57 -26 -49 -9 -113 -34
-113 -44 0 -5 -15 -12 -32 -15 -42 -9 -97 -37 -134 -68 -16 -13 -60 -34 -99
-47 -38 -12 -81 -33 -96 -46 -14 -13 -30 -24 -36 -24 -6 0 -45 -25 -87 -55
-43 -30 -109 -71 -149 -90 -90 -44 -169 -93 -227 -140 -163 -131 -237 -188
-264 -202 -37 -19 -226 -175 -276 -228 -19 -21 -55 -46 -79 -56 -48 -21 -295
-257 -447 -428 -81 -89 -84 -95 -78 -129 13 -69 22 -72 454 -136 129 -20 278
-39 330 -44 59 -5 106 -15 121 -25 16 -11 76 -22 169 -32 79 -9 214 -29 299
-46 86 -16 192 -32 236 -35 44 -3 130 -14 190 -24 61 -10 153 -22 205 -25 52
-3 168 -17 257 -31 89 -13 199 -24 245 -24 46 0 117 -4 158 -10 248 -33 246
-33 324 1 39 17 82 41 96 54 14 12 50 33 80 47 30 14 77 42 103 62 50 38 298
166 323 166 8 0 35 13 61 29 104 64 487 211 549 211 12 0 47 12 79 26 37 17
88 30 144 36 47 5 100 16 116 24 17 9 105 24 198 34 167 19 194 26 232 60 11
10 30 21 42 24 46 14 40 67 -10 87 -18 7 -91 52 -164 101 -73 49 -147 91 -165
94 -18 4 -82 30 -143 59 -269 128 -451 205 -485 205 -14 0 -58 14 -98 30 -40
17 -76 29 -80 26 -13 -8 -125 24 -143 40 -8 8 -38 18 -65 23 -28 6 -105 24
-172 40 -66 17 -131 31 -143 31 -12 0 -47 9 -78 19 -31 11 -104 25 -163 32
-101 11 -108 13 -108 34 l0 22 433 -2 c345 -3 451 -6 526 -19 52 -9 179 -23
281 -31 103 -8 246 -26 320 -40 73 -14 148 -25 167 -25 18 0 59 -11 91 -24 31
-13 84 -29 117 -36 33 -6 149 -41 257 -76 108 -35 202 -64 208 -64 7 0 51 -19
98 -43 48 -24 109 -49 136 -57 27 -7 71 -28 99 -47 27 -18 56 -33 64 -33 8 0
28 -9 44 -21 51 -36 252 -149 266 -149 7 0 33 -16 59 -35 25 -19 50 -35 56
-35 11 0 17 -5 158 -121 47 -39 105 -83 130 -97 43 -25 80 -55 118 -95 50 -52
61 -65 86 -103 32 -49 43 -122 26 -183 -13 -49 -101 -151 -131 -151 -9 0 -48
-16 -85 -36 -91 -48 -154 -72 -236 -89 -38 -8 -78 -21 -91 -29 -21 -14 -65
-23 -240 -46 -43 -5 -88 -15 -100 -22 -12 -7 -29 -13 -37 -15 -44 -8 -309 -33
-349 -33 -25 0 -77 -7 -116 -16 -120 -25 -337 -34 -1035 -43 -692 -8 -1123 2
-1183 27 -17 7 -35 9 -45 3 -9 -4 -35 -11 -57 -14 -57 -9 -375 11 -473 29 -46
9 -91 13 -100 9 -34 -13 -532 26 -647 51 -60 13 -182 28 -270 34 -88 7 -169
16 -180 21 -34 16 -184 39 -295 45 -58 4 -110 11 -116 16 -7 5 -76 19 -155 33
-79 13 -191 35 -249 49 -58 14 -126 26 -152 26 -26 0 -71 9 -99 20 -28 12 -88
26 -133 31 -45 6 -110 24 -146 39 -36 16 -87 31 -115 35 -27 4 -126 40 -220
80 -93 41 -195 83 -225 95 -42 16 -80 45 -159 119 l-105 99 -7 73 c-6 68 -5
78 19 123 15 27 54 72 86 100 33 28 81 70 106 92 125 115 166 147 208 164 18
7 63 38 100 68 37 30 94 67 127 82 34 15 97 57 140 94 44 36 89 66 100 66 11
0 34 9 50 20 48 32 56 36 137 74 42 20 85 47 95 60 10 13 34 28 54 35 19 6 71
34 114 61 43 27 101 56 129 64 50 15 361 150 381 165 5 5 28 14 50 21 22 7 55
21 74 32 43 24 362 133 450 154 35 8 115 36 177 64 62 27 141 54 176 60 35 7
76 21 92 32 15 11 47 22 70 25 22 3 73 17 111 33 39 15 97 33 130 40 33 6 75
20 93 31 18 10 62 26 99 34 36 9 128 40 204 70 75 30 144 55 152 55 8 0 30 13
50 29 20 15 55 31 77 35 22 3 64 17 94 31 30 14 65 25 78 25 27 0 89 30 136
64 18 14 63 34 100 46 37 12 84 33 104 46 21 13 42 24 46 24 5 0 26 13 47 30
21 16 56 35 79 41 22 6 60 22 83 35 23 13 50 24 60 24 11 0 41 14 69 32 27 17
83 49 126 70 42 20 79 42 83 48 4 6 34 23 68 39 34 15 68 35 76 44 7 9 25 17
40 17 14 0 40 9 56 20 17 11 102 56 190 99 88 44 169 89 180 101 11 12 35 28
55 36 19 8 44 24 55 34 11 11 39 26 61 34 22 7 98 48 168 90 70 42 134 76 141
76 6 0 32 15 56 33 24 18 59 39 77 46 18 8 40 23 50 35 9 12 37 30 62 40 25
10 54 26 65 36 11 10 54 34 95 54 41 20 102 60 135 90 33 29 77 58 97 65 20 7
42 19 48 27 7 7 47 35 89 60 42 26 103 70 136 98 120 104 215 176 251 191 22
9 109 87 224 200 103 102 192 185 198 185 6 0 77 74 158 164 80 91 152 167
159 170 8 3 46 54 86 113 40 59 89 127 111 150 21 24 38 49 38 57 0 19 36 77
76 124 17 21 41 56 53 80 12 23 41 72 65 110 24 37 47 78 51 91 4 13 20 44 36
69 16 25 29 53 29 63 0 9 9 28 20 42 12 14 26 41 32 59 6 18 26 58 44 88 33
56 150 368 178 476 8 32 20 98 26 145 5 47 21 122 34 166 13 44 27 109 31 144
42 414 36 1087 -13 1304 -11 50 -27 142 -36 207 -8 68 -23 132 -34 155 -11 21
-26 82 -35 135 -8 54 -23 112 -32 130 -9 18 -27 70 -40 114 -25 84 -109 274
-143 322 -11 15 -25 47 -32 72 -6 25 -22 56 -35 70 -12 14 -27 40 -33 58 -21
62 -125 225 -178 279 -34 35 -58 69 -64 93 -6 22 -24 50 -43 66 -17 15 -39 39
-48 54 -9 14 -46 50 -83 79 -36 29 -110 101 -163 159 -112 123 -156 161 -196
169 -16 3 -31 12 -34 20 -3 8 -22 22 -42 32 -20 11 -45 29 -56 41 -11 12 -40
36 -65 53 -145 100 -235 157 -251 157 -10 0 -33 13 -52 29 -18 17 -51 36 -73
44 -87 33 -187 78 -214 97 -43 31 -152 80 -178 80 -12 0 -40 9 -60 19 -34 17
-229 87 -410 147 -41 13 -105 29 -143 34 -38 6 -93 22 -122 36 -38 20 -75 29
-142 34 -49 4 -128 19 -175 33 -47 13 -119 28 -160 32 -41 4 -95 13 -120 20
-25 8 -137 22 -250 31 -113 9 -213 20 -222 25 -38 20 -480 49 -760 49 -127 0
-158 3 -158 14 0 14 60 26 127 26 18 0 59 13 91 29 31 16 98 38 147 51 50 12
106 30 125 40 19 10 100 44 180 76 154 60 240 102 240 116 0 4 12 8 28 8 33 0
102 31 121 53 7 10 20 17 27 17 21 0 221 92 279 128 28 17 70 43 95 57 25 14
60 37 79 50 19 14 44 25 57 25 13 0 51 24 91 58 37 32 93 70 124 84 30 14 80
46 110 71 29 25 68 58 84 72 17 14 64 50 105 81 114 86 279 252 290 294 6 19
37 69 70 110 34 41 63 86 67 100 3 14 28 68 56 121 37 71 49 107 50 140 1 126
-20 159 -84 124z m5939 -15412 c65 -38 74 -51 131 -188 55 -133 82 -226 106
-360 9 -49 23 -112 33 -140 14 -44 16 -110 17 -550 l0 -500 -27 -100 c-15 -55
-32 -140 -38 -190 -6 -49 -24 -147 -40 -216 -17 -70 -30 -138 -30 -153 0 -14
-11 -48 -25 -74 -14 -26 -30 -74 -35 -105 -6 -31 -20 -76 -30 -100 -11 -23
-20 -52 -20 -65 0 -12 -16 -46 -35 -75 -19 -28 -35 -58 -35 -65 0 -16 -120
-205 -134 -211 -4 -2 -16 -12 -25 -23 -26 -30 -118 -121 -152 -148 -17 -14
-46 -40 -66 -57 -20 -18 -54 -38 -77 -44 -22 -6 -64 -25 -92 -44 -91 -60 -121
-65 -362 -65 -224 0 -328 12 -396 47 -17 8 -70 42 -117 74 -48 32 -98 61 -113
65 -14 3 -43 26 -66 50 -39 42 -40 46 -40 113 0 41 6 80 15 97 8 16 15 53 15
82 0 29 7 66 15 81 15 30 76 336 95 481 6 47 20 114 31 150 11 36 25 103 30
150 5 47 23 132 39 189 17 60 30 128 30 160 0 32 11 100 25 152 13 51 25 117
25 144 0 28 11 120 25 205 14 85 30 236 37 335 9 145 14 184 28 200 10 11 25
34 33 51 9 17 42 52 74 79 32 27 87 77 123 110 70 64 103 89 163 120 21 11 78
56 127 100 89 80 167 136 208 149 12 4 47 23 78 41 143 86 349 108 452 48z"/>
<path d="M11780 25412 c-33 -10 -54 -42 -109 -157 -83 -173 -137 -214 -296
-223 -110 -5 -307 12 -367 34 -23 8 -77 19 -118 25 -109 15 -268 57 -325 86
-29 15 -81 29 -124 35 -40 5 -101 20 -135 34 -35 15 -107 31 -171 40 -60 8
-157 23 -215 34 -58 10 -136 22 -175 25 -38 4 -99 14 -135 22 -48 11 -154 16
-410 20 -334 5 -351 4 -520 -21 -282 -42 -432 -79 -496 -121 -13 -8 -46 -20
-73 -26 -28 -6 -67 -21 -86 -35 -20 -13 -43 -24 -52 -24 -23 0 -103 -40 -103
-51 0 -5 -53 -35 -117 -68 -179 -90 -195 -102 -462 -356 -209 -199 -275 -268
-301 -317 -30 -53 -73 -116 -116 -166 -75 -89 -143 -219 -199 -382 -13 -36
-34 -86 -48 -113 -14 -26 -31 -73 -37 -105 -6 -31 -18 -72 -26 -91 -9 -19 -24
-100 -35 -179 -10 -79 -25 -167 -34 -195 -26 -94 -11 -319 26 -389 18 -33 29
-8 39 89 7 62 22 126 50 204 23 62 53 161 67 219 14 58 38 137 54 176 15 39
35 100 44 134 9 35 22 69 30 76 7 7 18 37 25 66 7 30 25 67 42 86 15 18 46 68
67 110 37 73 125 202 169 247 10 11 29 38 40 60 25 48 361 385 385 385 17 0
54 29 113 87 35 35 220 153 240 153 7 0 30 15 52 33 31 26 68 41 177 71 76 21
159 48 184 61 29 14 81 27 140 34 51 7 110 18 129 27 62 25 334 34 707 23 271
-8 347 -13 374 -25 18 -9 122 -27 230 -40 108 -14 209 -29 225 -34 16 -6 41
-10 56 -10 15 0 90 -16 166 -36 77 -20 162 -38 190 -40 28 -2 98 -17 155 -33
57 -16 122 -33 144 -37 22 -4 49 -13 60 -20 21 -14 232 -55 381 -75 81 -11 98
-10 181 9 105 24 146 48 218 122 49 51 118 95 133 86 20 -12 36 15 33 58 -1
30 7 72 24 119 34 92 37 206 8 245 -21 28 -50 42 -73 34z"/>
<path d="M10378 23314 c-12 -11 -96 -26 -173 -29 -82 -3 -144 -18 -188 -46
-18 -10 -41 -19 -52 -19 -44 0 -245 -110 -310 -170 -158 -145 -268 -260 -287
-300 -12 -25 -32 -58 -46 -74 -13 -16 -34 -50 -46 -75 -12 -25 -27 -55 -33
-66 -54 -99 -136 -282 -149 -330 -22 -80 -31 -418 -14 -541 14 -110 109 -402
154 -477 18 -30 36 -66 40 -80 3 -14 22 -44 41 -67 19 -23 35 -48 35 -56 0
-42 127 -247 203 -328 19 -20 38 -48 41 -62 4 -14 20 -40 36 -57 40 -42 129
-151 157 -191 12 -17 26 -36 31 -42 6 -6 17 -24 25 -40 9 -17 26 -35 40 -41
13 -6 90 -90 171 -186 81 -97 154 -178 161 -180 7 -3 55 -56 108 -119 52 -62
106 -124 120 -138 13 -14 31 -39 40 -56 9 -17 27 -38 41 -47 13 -9 64 -63 112
-119 86 -102 132 -153 187 -206 39 -37 87 -107 87 -127 0 -14 67 -93 164 -195
13 -14 45 -68 71 -120 26 -52 54 -102 61 -111 8 -9 45 -86 83 -170 37 -85 78
-172 90 -194 15 -28 34 -109 61 -266 l39 -227 -16 -90 c-27 -151 -4 -158 69
-21 23 44 52 86 65 94 37 25 46 54 54 185 9 154 -2 226 -71 454 -58 193 -88
270 -134 346 -18 30 -39 72 -45 92 -7 21 -23 46 -35 56 -13 9 -28 34 -35 54
-6 19 -21 44 -32 54 -11 10 -31 41 -44 69 -13 27 -60 91 -105 140 -44 50 -138
167 -209 262 -72 95 -139 178 -151 185 -11 7 -20 17 -20 22 0 10 -82 101 -189
211 -96 97 -263 285 -334 375 -33 41 -68 84 -79 95 -72 75 -230 265 -245 294
-10 20 -47 70 -83 112 -59 69 -149 213 -175 279 -5 14 -23 42 -39 63 -15 20
-32 56 -38 79 -5 24 -17 52 -28 63 -26 29 -74 148 -99 244 -36 144 -44 240
-38 475 6 245 21 339 76 465 17 38 31 81 31 94 0 15 13 38 30 55 17 17 30 39
30 50 0 19 46 89 84 128 12 12 32 38 46 58 34 50 149 142 257 206 48 29 95 59
104 66 8 8 40 18 70 24 30 6 90 28 134 49 89 44 161 66 248 76 49 5 60 11 69
31 20 43 -6 56 -119 61 -54 3 -101 1 -105 -3z"/>
<path d="M22341 22924 c-237 -38 -245 -40 -263 -57 -7 -8 -38 -20 -68 -27 -56
-13 -171 -68 -199 -95 -31 -30 -106 -82 -128 -89 -12 -4 -35 -20 -50 -37 -15
-16 -33 -29 -38 -29 -23 0 -270 -270 -335 -365 -18 -28 -45 -62 -60 -78 -16
-15 -31 -43 -34 -63 -4 -19 -20 -56 -37 -81 -16 -26 -29 -55 -29 -65 0 -9 -13
-32 -30 -51 -32 -37 -50 -76 -50 -109 0 -12 -11 -44 -24 -72 -46 -97 -83 -278
-92 -451 -8 -143 11 -485 30 -550 8 -27 20 -90 26 -139 6 -49 19 -115 30 -145
10 -31 26 -94 35 -141 9 -47 25 -96 34 -110 10 -14 20 -48 24 -76 3 -29 18
-80 33 -115 15 -35 31 -86 35 -114 5 -27 27 -85 49 -127 22 -43 81 -169 131
-280 49 -112 100 -219 113 -238 13 -19 26 -56 30 -82 4 -26 16 -58 27 -71 10
-14 19 -30 19 -37 0 -19 30 -72 81 -141 33 -44 49 -76 49 -96 0 -17 13 -47 30
-71 17 -23 30 -51 30 -62 0 -27 22 -70 49 -94 12 -11 21 -27 21 -36 0 -22 99
-223 143 -293 19 -29 37 -70 41 -91 4 -21 18 -49 31 -62 13 -13 29 -43 35 -67
6 -23 22 -58 35 -78 12 -19 28 -61 34 -92 7 -30 20 -66 30 -79 9 -13 23 -43
30 -68 7 -25 21 -58 31 -75 9 -16 20 -52 24 -80 3 -27 17 -72 30 -100 29 -60
50 -259 41 -382 -4 -43 -2 -107 3 -143 10 -68 5 -83 -39 -135 -9 -11 -22 -37
-29 -59 -17 -52 -58 -110 -119 -171 -28 -27 -51 -57 -51 -66 0 -20 26 -49 43
-49 22 0 206 185 221 222 9 20 26 49 38 64 43 53 78 111 87 141 16 56 34 324
27 410 -10 136 -71 388 -101 423 -7 8 -18 35 -25 60 -6 25 -22 64 -35 87 -13
24 -31 67 -39 97 -9 29 -22 59 -30 65 -8 6 -17 26 -20 44 -4 18 -19 51 -35 75
-16 23 -32 61 -36 83 -4 22 -22 60 -41 85 -19 24 -34 47 -34 50 0 16 -47 104
-75 141 -18 23 -35 60 -39 82 -3 22 -14 46 -24 53 -11 7 -27 37 -37 67 -10 30
-77 174 -150 320 -76 153 -154 328 -185 411 -28 80 -63 161 -75 180 -13 19
-38 72 -54 118 -17 45 -37 94 -45 110 -37 72 -93 301 -147 602 -21 112 -23
158 -23 450 -1 360 -1 356 74 650 22 85 48 166 58 180 10 14 58 102 105 195
48 94 107 196 130 227 24 32 100 111 169 177 122 115 131 121 275 192 81 40
150 76 153 80 3 3 57 22 120 40 l115 34 330 0 c321 0 331 -1 377 -23 26 -12
80 -29 120 -36 72 -14 147 -43 239 -91 26 -13 64 -27 85 -31 22 -4 52 -17 67
-30 16 -13 39 -24 51 -24 12 0 41 -16 64 -36 24 -20 82 -67 129 -105 93 -73
115 -76 107 -17 -6 53 -82 145 -225 271 -30 27 -63 57 -74 67 -11 10 -40 26
-65 36 -25 10 -56 26 -69 36 -13 10 -47 25 -74 33 -28 8 -62 26 -77 39 -38 37
-132 83 -197 96 -32 7 -76 21 -98 31 -56 25 -311 66 -520 83 -22 2 -132 -12
-244 -30z"/>
<path d="M22910 22403 c-86 -6 -184 -24 -244 -43 -34 -11 -82 -22 -108 -26
-31 -3 -66 -17 -99 -40 -28 -18 -70 -42 -92 -52 -95 -42 -301 -237 -426 -401
-95 -124 -161 -223 -161 -239 0 -7 -9 -25 -20 -40 -11 -14 -30 -57 -42 -96
-12 -39 -27 -80 -34 -92 -8 -11 -18 -45 -24 -75 -5 -30 -21 -76 -35 -104 -40
-80 -45 -138 -45 -479 1 -347 9 -486 34 -534 9 -17 27 -81 40 -144 23 -110
144 -495 172 -550 8 -15 30 -71 49 -124 20 -54 46 -112 59 -128 12 -17 31 -54
40 -83 10 -28 26 -63 37 -77 10 -13 19 -34 19 -46 0 -26 15 -57 45 -90 12 -14
25 -41 29 -59 3 -19 14 -46 23 -60 10 -15 27 -49 39 -78 24 -58 82 -153 94
-153 9 0 90 -182 90 -203 0 -8 16 -34 35 -57 19 -23 35 -48 35 -56 0 -14 55
-123 115 -229 16 -27 38 -56 48 -64 25 -18 77 -132 77 -168 1 -36 31 -103 59
-127 11 -11 21 -31 21 -46 0 -33 33 -132 60 -177 11 -19 29 -82 41 -141 11
-59 30 -138 42 -177 17 -56 21 -97 21 -210 1 -137 0 -142 -32 -212 -17 -39
-32 -87 -32 -105 0 -39 -28 -76 -149 -200 -57 -59 -82 -78 -102 -78 -15 0 -41
-11 -57 -25 -22 -18 -66 -33 -163 -56 -123 -28 -156 -32 -394 -40 -294 -9
-547 1 -783 31 -84 11 -185 20 -224 20 -39 0 -136 11 -217 24 -250 42 -577 72
-639 60 -23 -5 -39 0 -62 16 -28 20 -40 22 -118 17 -109 -7 -428 -53 -464 -68
-16 -6 -28 -15 -28 -19 0 -4 -21 -13 -47 -20 -86 -24 -213 -91 -255 -134 -130
-135 -178 -204 -178 -260 0 -6 -8 -19 -19 -30 -20 -23 -41 -88 -66 -207 -20
-94 -20 -247 0 -319 9 -30 22 -76 29 -102 7 -26 24 -64 38 -85 14 -21 28 -51
32 -67 9 -38 93 -124 131 -135 40 -11 73 2 86 36 8 21 7 51 -4 118 -12 67 -13
106 -6 155 22 155 67 238 178 328 60 49 87 64 140 77 36 9 84 23 106 31 61 21
320 19 371 -2 22 -9 86 -20 144 -25 76 -6 127 -16 185 -37 44 -17 103 -33 130
-37 28 -4 66 -15 85 -25 19 -10 58 -21 85 -24 95 -14 299 -68 345 -92 26 -14
76 -29 111 -36 35 -6 92 -24 127 -40 35 -17 124 -45 198 -63 73 -19 162 -45
196 -58 35 -14 84 -28 111 -32 26 -3 71 -17 100 -30 36 -17 84 -27 155 -34 57
-5 109 -14 116 -20 14 -12 183 -41 237 -41 20 0 62 -12 93 -26 47 -22 78 -27
203 -34 194 -12 454 -12 573 0 90 9 188 34 397 101 50 16 97 29 105 29 7 0 27
7 43 16 17 9 48 22 71 29 22 6 92 43 155 82 92 56 139 94 245 199 72 71 139
143 147 160 9 17 23 34 31 37 8 3 27 30 42 59 15 29 49 86 77 127 79 117 107
177 107 227 0 25 9 62 20 84 28 55 43 202 44 435 1 205 -5 252 -45 385 -11 36
-22 82 -25 102 -7 54 -110 314 -140 353 -14 19 -30 49 -35 69 -5 19 -20 48
-33 63 -13 16 -29 49 -36 73 -6 25 -24 59 -40 75 -15 17 -30 46 -33 68 -3 21
-19 53 -34 72 -15 19 -41 53 -58 76 -16 23 -42 53 -56 68 -14 14 -31 41 -37
59 -6 18 -21 45 -32 60 -63 82 -90 124 -90 137 0 9 -29 47 -65 85 -36 38 -65
76 -65 84 0 8 -10 27 -23 43 -12 15 -28 39 -34 53 -5 14 -51 75 -100 135 -50
61 -103 135 -118 165 -15 30 -56 84 -91 121 -35 36 -64 69 -64 73 0 11 -89
139 -174 251 -42 55 -76 106 -76 113 0 7 -29 51 -64 97 -36 47 -86 122 -111
167 -54 97 -103 168 -115 168 -5 0 -16 22 -24 48 -9 27 -28 64 -41 82 -14 19
-25 46 -25 61 0 15 -15 45 -35 70 -19 24 -46 74 -61 111 -14 36 -32 72 -39 78
-8 7 -24 37 -35 68 -12 32 -32 69 -46 83 -18 19 -28 47 -40 114 -8 49 -21 100
-29 114 -19 38 -48 241 -48 346 -2 177 55 378 127 454 14 14 29 38 35 53 19
50 185 148 252 148 22 0 57 8 76 17 34 16 41 15 157 -6 66 -13 132 -29 145
-35 53 -24 110 -98 146 -189 25 -61 27 -77 23 -170 -3 -80 -9 -111 -26 -144
-29 -56 -30 -131 -2 -161 17 -17 25 -20 40 -12 10 5 43 10 73 10 44 0 62 5 95
29 22 17 66 44 99 62 62 35 103 67 103 82 0 5 11 18 25 29 28 22 93 144 131
245 38 100 45 172 30 305 -15 135 -31 169 -127 275 -33 37 -66 81 -74 100 -9
22 -26 39 -47 48 -19 7 -42 23 -53 35 -47 52 -170 123 -255 146 -30 9 -73 24
-95 35 -27 12 -89 24 -188 34 -81 8 -153 14 -160 13 -6 -1 -32 -3 -57 -5z"/>
<path d="M19862 15315 c-171 -53 -175 -173 -5 -189 181 -18 377 -48 396 -61
12 -8 91 -32 176 -55 84 -23 176 -52 203 -66 28 -14 78 -30 112 -35 33 -6 97
-21 141 -34 44 -13 100 -27 125 -31 25 -4 77 -20 117 -36 39 -15 80 -28 92
-28 11 0 23 -5 26 -10 11 -18 64 -41 120 -51 30 -5 75 -19 101 -30 59 -27 593
-147 704 -159 47 -5 124 -18 171 -29 219 -53 694 -54 860 -1 35 11 107 27 159
36 52 8 118 26 147 40 28 13 64 24 80 24 36 0 122 41 147 69 11 11 25 21 31
21 7 0 47 23 90 51 86 56 174 138 199 186 14 29 14 33 0 47 -18 19 -31 13 -95
-40 -81 -67 -131 -97 -173 -101 -23 -3 -57 -15 -76 -27 -22 -14 -67 -27 -120
-35 -47 -7 -113 -24 -147 -37 -35 -14 -67 -23 -72 -20 -5 3 -47 0 -92 -8 -135
-23 -288 -27 -549 -16 -365 15 -674 60 -792 115 -29 14 -79 30 -110 36 -32 6
-58 15 -58 20 0 11 -122 47 -180 53 -25 2 -65 12 -89 20 -24 9 -121 37 -215
62 -94 26 -178 53 -186 60 -8 7 -46 20 -85 30 -38 9 -86 25 -105 34 -19 9 -64
23 -99 29 -35 7 -74 19 -86 27 -12 8 -64 23 -116 34 -52 11 -102 25 -112 30
-23 13 -128 33 -342 65 -191 28 -231 29 -293 10z"/>
<path d="M22362 5576 c-27 -15 -62 -64 -62 -88 0 -10 -13 -32 -29 -50 -35 -41
-46 -63 -55 -107 -3 -19 -31 -75 -60 -125 -30 -50 -58 -104 -62 -121 -4 -16
-18 -46 -31 -65 -12 -19 -23 -38 -23 -43 0 -13 -60 -98 -102 -144 -21 -24 -38
-47 -38 -53 0 -5 -27 -49 -60 -97 -33 -47 -60 -92 -60 -99 0 -7 -6 -17 -13
-21 -8 -4 -22 -21 -32 -38 -11 -16 -34 -48 -53 -70 -35 -41 -256 -277 -280
-298 -7 -7 -27 -26 -45 -42 -109 -102 -327 -272 -361 -281 -14 -3 -40 -21 -58
-39 -18 -19 -55 -44 -83 -56 -27 -12 -81 -36 -120 -54 -122 -57 -189 -83 -235
-90 -25 -4 -69 -20 -99 -36 -30 -16 -61 -29 -70 -29 -9 0 -36 -10 -61 -21 -25
-11 -93 -31 -152 -44 -59 -13 -118 -31 -130 -39 -13 -8 -48 -17 -78 -21 -30
-4 -75 -16 -100 -27 -25 -11 -89 -28 -144 -39 -54 -10 -105 -24 -112 -30 -8
-6 -84 -20 -170 -30 -85 -10 -161 -22 -167 -28 -12 -9 -32 -13 -237 -46 -52
-8 -131 -21 -176 -29 -44 -8 -156 -20 -250 -26 -93 -6 -254 -17 -359 -25 -104
-8 -318 -19 -475 -25 -409 -13 -3819 -22 -4130 -10 -280 10 -903 61 -1045 85
-49 9 -155 22 -235 31 -80 8 -201 28 -270 44 -69 16 -159 34 -200 40 -127 18
-562 120 -621 146 -31 13 -70 24 -86 24 -43 0 -123 25 -255 81 -64 27 -124 49
-135 49 -10 0 -43 15 -73 33 -76 44 -96 54 -165 77 -32 11 -72 32 -86 46 -15
15 -41 27 -58 29 -16 1 -45 14 -63 29 -18 15 -55 45 -81 67 -27 22 -70 51 -97
64 -26 13 -50 31 -53 39 -3 8 -32 33 -64 57 -59 43 -90 70 -178 161 -27 28
-71 72 -96 97 -82 81 -187 207 -202 242 -8 19 -44 69 -80 112 -37 44 -69 87
-72 98 -4 10 -10 19 -15 19 -14 0 -150 235 -150 258 0 11 -11 33 -24 49 -13
15 -29 46 -36 68 -7 22 -27 60 -44 85 -30 43 -46 79 -67 145 -5 17 -38 67 -73
111 -87 110 -117 119 -281 90 -217 -40 -556 -116 -591 -134 -21 -11 -75 -25
-119 -32 -44 -7 -96 -20 -115 -30 -19 -9 -118 -38 -220 -64 -235 -60 -387
-104 -423 -122 -15 -8 -53 -20 -84 -25 -32 -6 -78 -21 -103 -34 -25 -12 -79
-28 -120 -35 -70 -12 -108 -24 -120 -39 -3 -4 -41 -15 -84 -24 -44 -9 -87 -24
-96 -32 -9 -8 -91 -39 -181 -69 -162 -52 -265 -99 -386 -175 -34 -21 -80 -41
-101 -45 -22 -3 -84 -28 -138 -55 -54 -27 -117 -54 -139 -61 -75 -24 -184 -86
-186 -106 -1 -18 -62 -57 -124 -79 -35 -12 -79 -33 -97 -46 -18 -13 -50 -33
-72 -44 -21 -11 -55 -37 -75 -58 -20 -21 -101 -92 -181 -159 -80 -67 -174
-151 -210 -188 -100 -100 -250 -335 -250 -389 0 -11 -11 -46 -25 -77 -49 -111
-54 -267 -14 -445 23 -101 123 -313 191 -404 109 -146 356 -380 461 -436 34
-18 79 -50 100 -71 21 -21 50 -41 65 -44 15 -4 38 -17 52 -29 14 -13 43 -32
65 -43 22 -11 45 -29 52 -40 6 -11 46 -36 88 -56 42 -20 93 -48 113 -61 20
-14 46 -25 59 -25 31 0 150 -59 208 -103 27 -21 60 -40 74 -43 14 -3 37 -11
51 -19 37 -19 350 -142 385 -151 17 -4 50 -17 75 -30 25 -13 68 -28 95 -35 28
-7 59 -18 70 -25 11 -7 94 -36 185 -64 91 -28 242 -75 335 -105 200 -63 334
-101 390 -110 22 -4 76 -23 119 -42 51 -23 105 -39 150 -44 39 -4 109 -19 156
-33 47 -13 105 -27 130 -31 25 -4 70 -15 100 -26 30 -10 162 -39 292 -64 131
-25 255 -52 277 -60 21 -7 83 -19 136 -25 53 -6 120 -20 150 -30 29 -10 97
-26 151 -35 55 -9 125 -26 158 -36 37 -13 107 -23 192 -29 73 -5 170 -18 216
-29 46 -11 112 -22 148 -26 36 -4 123 -18 193 -31 70 -13 198 -28 285 -34 86
-5 200 -19 252 -30 52 -12 142 -25 200 -30 58 -6 170 -23 250 -40 100 -21 187
-32 280 -36 74 -3 149 -10 165 -15 17 -5 129 -18 249 -29 121 -11 296 -29 390
-40 185 -21 466 -39 1121 -70 231 -11 463 -25 515 -30 237 -26 525 -32 1530
-37 1123 -5 1734 5 1990 32 201 21 551 42 895 55 380 14 595 27 730 44 61 8
221 24 358 36 136 12 272 28 303 36 30 8 92 14 137 14 139 0 314 20 415 46 57
15 151 30 227 35 72 6 155 16 185 24 30 8 127 21 215 30 88 9 214 27 280 40
134 27 242 42 552 79 117 14 229 32 250 40 21 8 66 17 101 21 34 3 102 19 150
35 48 16 128 34 177 41 49 6 107 18 128 25 21 7 90 21 153 29 64 9 142 25 174
35 32 10 136 35 232 55 208 43 281 61 328 80 19 7 64 16 100 19 40 4 86 16
119 32 29 15 102 37 163 50 60 13 117 28 126 33 9 5 40 12 67 16 28 4 65 16
84 27 19 10 68 26 110 34 42 9 91 25 110 36 28 16 189 64 328 98 17 4 47 17
65 28 39 23 217 87 269 96 21 4 53 18 73 31 20 14 44 25 53 25 8 0 77 29 153
65 76 36 144 65 150 65 7 0 27 11 45 24 49 38 157 92 198 100 57 11 231 103
284 150 27 24 86 65 133 92 47 27 108 68 137 91 28 23 68 49 88 57 21 9 117
93 230 203 153 147 203 203 239 262 25 42 48 88 51 103 4 14 18 36 31 49 13
12 24 27 24 32 0 6 17 45 38 86 l37 76 0 190 -1 190 -70 160 c-87 198 -195
352 -320 455 -44 35 -111 96 -149 135 -82 82 -281 225 -427 308 -56 32 -107
65 -114 75 -6 9 -49 35 -95 57 -46 22 -90 46 -98 53 -17 17 -50 29 -109 43
-25 5 -57 18 -72 29 -15 11 -46 23 -68 29 -23 5 -64 23 -90 40 -27 17 -55 31
-62 31 -7 0 -34 13 -59 29 -57 36 -156 76 -325 130 -72 23 -137 48 -146 56 -9
8 -40 19 -68 25 -28 5 -70 19 -93 31 -23 11 -70 25 -103 30 -34 4 -92 22 -129
39 -36 16 -109 41 -162 55 -53 14 -129 38 -168 55 -40 17 -101 35 -137 40 -36
6 -87 20 -113 31 -27 11 -87 27 -133 35 -47 8 -136 31 -197 50 -167 53 -345
98 -605 154 -238 51 -319 59 -360 36z"/>
</g>
</svg>
