<svg version="1.1" id="Layer_1" xmlns="http://www.w3.org/2000/svg" xmlns:xlink="http://www.w3.org/1999/xlink" x="0px" y="0px"
	 fill="currentColor" stroke="currentColor" width="100%" viewBox="0 0 3125 3125" enable-background="new 0 0 3125 3125" xml:space="preserve">

<path
	d="
M580.977112,1509.371338 
	C609.143555,1509.297607 636.412781,1509.297607 663.956116,1509.297607 
	C663.956116,1507.169189 664.643799,1504.614380 663.833984,1502.689941 
	C660.747437,1495.354736 657.611145,1487.975342 653.671753,1481.081909 
	C649.397644,1473.602783 645.526367,1466.362671 644.008728,1457.543091 
	C642.474792,1448.629150 638.330688,1440.188721 635.704285,1431.428711 
	C634.196655,1426.399902 633.192322,1421.185547 632.385925,1415.988770 
	C630.862671,1406.171997 629.375183,1396.335449 628.359802,1386.457031 
	C626.444702,1367.825806 629.286377,1349.378540 631.144714,1330.912109 
	C631.672607,1325.666260 631.380859,1319.763428 633.748413,1315.401367 
	C638.134338,1307.320923 639.845459,1299.359985 638.549133,1290.369141 
	C638.255920,1288.336182 639.352600,1285.477295 640.813049,1283.973022 
	C642.693176,1282.036499 645.734619,1279.800049 647.998535,1280.064697 
	C650.264160,1280.329712 652.945984,1283.141846 654.111084,1285.497437 
	C656.922180,1291.180908 655.235596,1297.255249 653.653870,1302.914795 
	C649.791138,1316.736206 648.740356,1330.639771 649.804749,1344.960327 
	C650.689087,1356.858032 650.008972,1368.864136 650.419006,1380.808594 
	C650.622620,1386.740356 651.574341,1392.662964 652.449402,1398.550659 
	C653.420471,1405.084473 654.252075,1411.689819 655.934998,1418.055054 
	C658.298096,1426.992798 660.864685,1435.949585 664.313354,1444.507812 
	C668.023621,1453.715088 672.925476,1462.437012 677.172607,1471.434448 
	C680.653137,1478.807983 683.799133,1486.341431 687.362671,1493.673096 
	C689.213013,1497.479858 691.411194,1501.170166 693.863342,1504.621094 
	C699.758789,1512.917969 705.608215,1521.278076 712.037842,1529.154175 
	C716.367920,1534.458374 721.334290,1539.376221 726.644348,1543.694092 
	C729.527893,1546.038818 733.612427,1547.243042 737.352417,1548.132935 
	C747.368774,1550.515625 757.518311,1552.332275 767.563538,1554.601318 
	C775.873657,1556.478516 784.667236,1555.353638 792.739929,1559.581543 
	C794.779480,1560.649902 799.150757,1557.266113 803.286804,1555.589111 
	C800.633728,1553.593018 798.921082,1552.100098 797.020569,1550.906128 
	C776.741272,1538.166382 760.418823,1520.979736 745.241882,1502.906128 
	C737.272034,1493.415161 731.875366,1481.765747 725.282349,1471.112427 
	C724.590515,1469.994385 723.652100,1469.030884 722.851624,1467.977661 
	C711.930542,1453.609375 705.115173,1437.217529 699.682983,1420.213867 
	C695.674622,1407.666748 692.089172,1394.982910 688.426880,1382.327881 
	C687.512390,1379.167725 686.697693,1375.912598 686.403076,1372.650146 
	C684.942993,1356.484131 683.159607,1340.321289 682.526001,1324.116821 
	C682.140869,1314.266968 683.421387,1304.323853 684.346985,1294.459595 
	C685.180115,1285.580933 686.544861,1276.752197 687.685364,1267.902710 
	C687.983154,1265.591187 687.981750,1263.175293 688.689636,1260.992676 
	C694.994690,1241.552368 700.818665,1221.922607 708.050415,1202.828247 
	C712.447571,1191.217896 719.215759,1180.520508 724.673828,1169.293823 
	C736.715393,1144.525757 754.557190,1124.201416 773.480408,1104.624146 
	C788.532410,1089.051880 803.883850,1073.757080 821.833252,1061.578491 
	C835.238220,1052.483154 849.475403,1044.609985 863.387695,1036.268921 
	C870.107300,1032.240112 876.832520,1028.200928 883.733154,1024.498291 
	C893.940491,1019.021545 903.956299,1012.956421 914.675354,1008.711548 
	C939.303101,998.958862 964.309326,990.162476 989.154846,980.958801 
	C996.531921,978.226074 1003.856140,975.348816 1011.256897,972.682678 
	C1021.197571,969.101624 1031.110962,965.415527 1041.177856,962.221313 
	C1054.420532,958.019409 1067.932373,954.637878 1081.079712,950.171387 
	C1090.993408,946.803406 1100.504150,942.254944 1110.222290,938.301025 
	C1112.676514,937.302612 1115.260498,936.628235 1117.747070,935.703674 
	C1131.670776,930.526733 1145.536499,925.189636 1159.510986,920.154480 
	C1176.575073,914.006104 1191.294678,903.388245 1207.399414,895.469482 
	C1219.479004,889.529846 1230.722046,882.854919 1239.613159,872.625122 
	C1239.827881,872.378052 1240.098511,872.120911 1240.395752,872.012573 
	C1254.754395,866.780273 1263.172119,854.408142 1273.699097,844.526794 
	C1279.598145,838.989624 1284.666626,833.165710 1287.454590,825.391052 
	C1289.337158,820.141235 1292.421753,815.324158 1294.325806,810.080139 
	C1301.952881,789.072693 1302.366089,767.452026 1300.549927,745.376770 
	C1298.456055,719.925171 1289.687988,696.391602 1281.687622,672.606384 
	C1279.967529,667.492188 1276.032349,663.154724 1273.388428,658.311523 
	C1270.122803,652.329163 1266.883179,646.301392 1264.225586,640.041382 
	C1263.604248,638.577820 1264.880615,635.592163 1266.231079,634.286499 
	C1266.995605,633.547302 1270.369995,634.156860 1271.402222,635.255249 
	C1281.111206,645.587463 1293.618896,653.348999 1300.033203,666.768250 
	C1301.555908,669.953796 1305.145142,672.101746 1306.951660,675.210510 
	C1313.384521,686.280518 1319.749634,697.410645 1325.565063,708.811401 
	C1329.378662,716.287964 1332.209961,724.266541 1335.455933,732.030762 
	C1335.839233,732.947327 1336.109497,733.918884 1336.353149,734.884827 
	C1339.905884,748.964966 1344.305786,762.902283 1346.728882,777.175049 
	C1348.859009,789.722412 1349.464233,802.644287 1349.498413,815.404053 
	C1349.546631,833.392029 1345.005859,850.443054 1339.009033,867.549561 
	C1333.224243,884.050903 1323.552856,897.919556 1314.734619,912.443726 
	C1311.162964,918.326538 1306.054810,923.325745 1301.365601,928.471558 
	C1287.019897,944.214233 1272.226807,959.680481 1254.877075,972.021362 
	C1237.989990,984.033264 1219.873535,994.312622 1202.344482,1005.427612 
	C1190.934937,1012.662170 1179.890137,1020.519714 1168.178467,1027.217773 
	C1153.019043,1035.887573 1137.303223,1043.578735 1121.936279,1051.893311 
	C1114.131348,1056.116333 1106.631592,1060.899536 1098.877808,1065.221436 
	C1086.503662,1072.118896 1074.040894,1078.858032 1061.591553,1085.619751 
	C1060.151978,1086.401611 1058.290283,1086.576660 1057.078369,1087.580933 
	C1043.489136,1098.843018 1027.258667,1105.872070 1012.640137,1115.463745 
	C990.513428,1129.981812 968.253601,1144.385620 948.660522,1162.314819 
	C937.178284,1172.821899 926.353271,1184.047363 915.239136,1194.956299 
	C914.527039,1195.655273 913.707947,1196.314575 913.212036,1197.153931 
	C897.876099,1223.109009 882.847351,1249.071289 878.183777,1279.705688 
	C874.922424,1301.128906 873.906982,1322.354858 875.263000,1344.043091 
	C876.382019,1361.941772 880.060242,1379.174927 886.540771,1395.332520 
	C892.085999,1409.157959 900.561646,1421.898193 910.830872,1433.460205 
	C923.504150,1447.728760 939.288635,1456.933594 955.393433,1466.152466 
	C975.232239,1477.508545 997.082947,1482.669922 1019.107788,1487.187622 
	C1038.302124,1491.124878 1057.572876,1494.768799 1076.917603,1497.870850 
	C1092.936890,1500.439575 1109.211426,1501.456421 1125.194824,1504.198120 
	C1144.471680,1507.504761 1163.722046,1511.259277 1182.691040,1515.993408 
	C1207.904785,1522.286377 1232.288574,1531.738281 1253.477905,1546.692261 
	C1273.171265,1560.590210 1291.592407,1576.593750 1298.855835,1601.522583 
	C1302.176147,1612.918335 1306.483887,1615.658936 1318.409546,1616.048584 
	C1343.002930,1616.852173 1367.688477,1616.375366 1392.180786,1618.351318 
	C1423.801514,1620.902344 1455.541260,1617.814209 1486.947388,1620.593506 
	C1514.562744,1623.037476 1542.064453,1622.873413 1569.638916,1623.283936 
	C1591.257446,1623.605957 1612.756348,1622.259033 1634.315552,1620.405273 
	C1653.837036,1618.726562 1673.592529,1619.991699 1693.212646,1619.181519 
	C1723.041870,1617.949829 1752.976318,1618.132812 1782.565063,1612.983887 
	C1790.037964,1611.683472 1797.765259,1611.881348 1805.365845,1611.269775 
	C1824.865967,1609.700684 1844.356445,1608.012085 1863.858398,1606.467163 
	C1886.341309,1604.685791 1908.836182,1603.054932 1931.318970,1601.270874 
	C1956.777710,1599.250732 1982.258667,1597.441162 2007.674927,1594.973877 
	C2034.721313,1592.348633 2061.704590,1589.071411 2088.711914,1586.047974 
	C2092.338867,1585.641846 2095.943115,1585.032104 2099.562744,1584.555420 
	C2127.494873,1580.876709 2155.403320,1577.000977 2183.367676,1573.585815 
	C2221.848877,1568.886353 2260.417725,1564.880737 2298.859619,1559.892334 
	C2317.885254,1557.423462 2336.663818,1553.111206 2355.638428,1550.177856 
	C2391.690918,1544.604370 2427.804199,1539.426270 2463.891113,1534.075684 
	C2469.689697,1533.215942 2475.481934,1532.313477 2481.689941,1531.367920 
	C2479.743164,1526.534912 2477.050049,1524.270996 2472.100342,1523.729126 
	C2462.213623,1522.647095 2452.418213,1520.751709 2442.565918,1519.324219 
	C2439.503906,1518.880493 2436.075928,1518.710693 2435.896240,1514.835083 
	C2435.718750,1511.016357 2439.107178,1510.442993 2442.076904,1509.586426 
	C2455.813965,1505.624878 2469.661133,1507.866821 2483.515625,1508.472534 
	C2493.103027,1508.891602 2502.727539,1508.397583 2512.326904,1508.643066 
	C2522.238525,1508.896606 2532.223389,1508.923584 2542.020508,1510.222412 
	C2550.293213,1511.319092 2555.353271,1517.862061 2555.491455,1527.505859 
	C2555.686523,1541.100830 2554.802490,1554.710327 2554.421387,1568.314819 
	C2554.141846,1578.297852 2554.187500,1588.297241 2553.630615,1598.263916 
	C2552.558105,1617.465576 2551.112793,1636.646118 2549.917236,1655.841431 
	C2549.186523,1667.573364 2548.633545,1679.316528 2547.990967,1691.230347 
	C2549.770752,1691.038452 2550.699951,1691.208496 2550.950195,1690.872681 
	C2564.221191,1673.053955 2581.935791,1660.006958 2599.033691,1646.349609 
	C2603.930176,1642.438477 2609.418213,1638.992554 2615.124756,1636.418457 
	C2642.843262,1623.915405 2672.034180,1616.760132 2702.229248,1613.643311 
	C2705.135254,1613.343262 2708.169922,1613.814697 2711.093506,1614.263428 
	C2716.966797,1615.164917 2722.873535,1616.010986 2728.645264,1617.387451 
	C2750.404297,1622.576904 2771.279053,1629.786255 2787.600342,1646.073975 
	C2793.692383,1652.153442 2799.474609,1658.585571 2804.943359,1665.231079 
	C2808.029541,1668.981445 2810.169678,1673.506104 2812.775146,1677.657471 
	C2814.366211,1680.192017 2815.514160,1683.350220 2817.750488,1685.075317 
	C2828.701660,1693.522705 2831.339111,1706.541138 2836.195557,1718.202759 
	C2841.118408,1730.024292 2845.566162,1742.138916 2848.981934,1754.468872 
	C2853.224121,1769.782104 2856.826416,1785.337158 2859.569580,1800.986694 
	C2864.160156,1827.173340 2866.279053,1853.687256 2865.501709,1880.260254 
	C2864.920410,1900.126221 2863.850342,1920.084106 2861.191406,1939.756836 
	C2857.742188,1965.277100 2852.878174,1990.629639 2847.896973,2015.911255 
	C2844.512207,2033.090332 2840.120117,2050.086182 2835.718262,2067.044434 
	C2832.989746,2077.555664 2829.859619,2088.014648 2826.066895,2098.182617 
	C2822.285400,2108.321289 2817.286865,2117.999512 2813.138672,2128.010742 
	C2810.400635,2134.618652 2808.313232,2141.493652 2805.752930,2148.179443 
	C2804.575928,2151.253174 2803.170654,2154.281006 2801.513184,2157.122070 
	C2792.553223,2172.483643 2784.000488,2188.120605 2774.259766,2202.975586 
	C2768.124268,2212.332275 2760.733887,2221.057373 2752.870361,2229.046387 
	C2740.084717,2242.036133 2727.117432,2255.021240 2712.939941,2266.405762 
	C2703.518799,2273.970947 2691.986328,2278.991699 2681.157471,2284.692383 
	C2671.793213,2289.622070 2662.424805,2294.915039 2652.454346,2298.233887 
	C2638.023926,2303.037598 2623.209229,2307.054443 2608.269775,2309.878662 
	C2584.147949,2314.438232 2559.785156,2312.905029 2536.014893,2307.584961 
	C2514.630127,2302.799072 2495.773926,2291.998291 2479.895020,2276.812500 
	C2472.247070,2269.498047 2465.693359,2261.016113 2458.876953,2252.868164 
	C2456.726807,2250.298096 2454.891113,2248.374023 2452.182617,2249.962891 
	C2441.000977,2281.337891 2430.136475,2312.148193 2418.984131,2342.853760 
	C2416.634766,2349.322021 2413.122559,2355.359863 2410.335449,2361.679688 
	C2406.511719,2370.350098 2403.208740,2379.266602 2399.057861,2387.772705 
	C2394.293945,2397.534912 2388.806152,2406.942139 2383.714111,2416.546875 
	C2381.240967,2421.212158 2378.672607,2425.858398 2376.630371,2430.716064 
	C2368.129150,2450.937012 2354.621826,2468.077637 2343.217773,2486.539795 
	C2328.360352,2510.592529 2308.412354,2529.929688 2288.997314,2549.708008 
	C2272.303223,2566.714600 2254.218750,2582.418213 2232.222412,2592.914062 
	C2220.670654,2598.426270 2210.039795,2605.846436 2198.579834,2611.578613 
	C2176.856201,2622.444580 2153.985107,2630.471191 2130.639160,2637.084961 
	C2111.205811,2642.590576 2091.693359,2647.816650 2072.206055,2653.130371 
	C2069.650635,2653.827148 2067.059326,2654.447510 2064.447266,2654.872803 
	C2038.962524,2659.023193 2013.494507,2663.287354 1987.964478,2667.140625 
	C1980.440674,2668.275879 1972.709473,2667.958496 1965.118286,2668.741943 
	C1945.010620,2670.816650 1924.770508,2672.205078 1904.875122,2675.585449 
	C1881.121094,2679.621094 1857.317505,2679.915771 1833.398438,2680.187256 
	C1817.464233,2680.367676 1801.528809,2681.233154 1785.614136,2682.143799 
	C1769.057861,2683.091309 1752.526855,2684.477295 1735.982422,2685.635986 
	C1732.667480,2685.868164 1729.341309,2686.071045 1726.020386,2686.071777 
	C1625.023315,2686.094482 1524.025635,2686.295898 1423.029663,2685.961670 
	C1393.785278,2685.864990 1364.545410,2684.237061 1335.304565,2683.278320 
	C1316.041626,2682.646973 1296.765381,2682.243164 1277.522705,2681.219727 
	C1254.363159,2679.988281 1231.220825,2679.156250 1208.188599,2675.334717 
	C1186.339600,2671.709961 1164.080200,2670.621094 1142.051758,2667.993896 
	C1128.228394,2666.345459 1114.336426,2664.655029 1100.759521,2661.684326 
	C1072.325562,2655.462891 1042.993042,2653.744629 1015.298279,2643.645264 
	C1001.684387,2638.680664 987.226318,2636.082031 973.310852,2631.881104 
	C952.391724,2625.564941 931.724854,2618.568359 913.163635,2606.531250 
	C909.036011,2603.854980 904.244995,2602.225342 899.894897,2599.864258 
	C865.626343,2581.262939 834.226746,2558.894531 808.856323,2528.938965 
	C799.274414,2517.625488 790.361755,2505.730957 781.425659,2493.888916 
	C774.092285,2484.170410 766.598145,2474.495850 760.185608,2464.174316 
	C742.205750,2435.234619 726.866516,2404.891846 713.552429,2373.517090 
	C710.984192,2367.464844 707.578735,2361.770508 704.631592,2355.875244 
	C703.153198,2352.918213 701.129822,2350.007080 700.564514,2346.857666 
	C697.238586,2328.329102 687.051941,2312.384277 681.324707,2294.777588 
	C679.066772,2287.836426 675.769958,2281.135498 674.326416,2274.044189 
	C668.953125,2247.648438 658.528076,2222.772949 651.698181,2196.846191 
	C646.482178,2177.044922 642.172485,2157.006592 637.326477,2137.106201 
	C633.670654,2122.093018 629.505432,2107.198242 626.122742,2092.125732 
	C623.238464,2079.273926 621.029480,2066.265381 618.729248,2053.289062 
	C614.796387,2031.102051 610.870178,2008.911743 607.234009,1986.674805 
	C604.040894,1967.147217 601.323425,1947.542114 598.258728,1927.992798 
	C595.386719,1909.671875 592.080078,1891.415649 589.458740,1873.060425 
	C587.917236,1862.266846 587.416870,1851.327759 586.312439,1840.467896 
	C583.028687,1808.179321 579.509338,1775.913696 576.437561,1743.605225 
	C575.245239,1731.065308 575.298035,1718.410034 574.244080,1705.852661 
	C573.276184,1694.321045 571.041687,1682.883667 570.327942,1671.345337 
	C569.057373,1650.802368 568.694397,1630.204956 567.596069,1609.649170 
	C566.960205,1597.748535 565.232605,1585.902588 564.710266,1574.000610 
	C564.024780,1558.381104 563.557556,1542.718994 563.935303,1527.097900 
	C564.173218,1517.256958 570.662415,1511.650024 580.977112,1509.371338 
M2499.610352,2173.493408 
	C2502.396240,2175.251465 2505.208740,2176.968750 2507.961914,2178.776855 
	C2512.646973,2181.853760 2516.916260,2186.013428 2522.030762,2187.899658 
	C2535.635498,2192.916748 2549.152100,2199.333496 2563.988037,2199.052246 
	C2579.018066,2198.767578 2594.113525,2201.673584 2608.977783,2194.461670 
	C2627.322510,2185.561035 2648.117432,2181.191895 2661.007568,2163.281982 
	C2661.372314,2162.774902 2662.096436,2162.538330 2662.616455,2162.128906 
	C2684.250732,2145.101807 2696.601318,2121.712402 2705.422607,2096.582520 
	C2710.751465,2081.402344 2716.722900,2066.442627 2719.894287,2050.287109 
	C2724.081543,2028.954712 2731.295410,2008.212646 2733.648193,1986.400635 
	C2734.747559,1976.207886 2737.438232,1966.068481 2737.464355,1955.899902 
	C2737.553711,1921.024902 2737.384277,1886.125244 2736.085693,1851.280884 
	C2735.440186,1833.958008 2734.354248,1816.319824 2726.692627,1800.081543 
	C2726.005615,1798.625732 2726.033447,1796.834961 2725.715088,1795.202515 
	C2721.422607,1773.194702 2711.709961,1754.137329 2694.782715,1739.144287 
	C2692.987793,1737.554443 2690.233154,1736.306763 2687.874023,1736.217773 
	C2674.606201,1735.717285 2661.250977,1735.092651 2649.625732,1743.565308 
	C2647.810791,1744.888062 2645.297607,1745.206177 2643.260010,1746.279297 
	C2635.721680,1750.250122 2627.898193,1753.817749 2620.836914,1758.520630 
	C2611.801514,1764.538696 2603.701904,1771.967163 2594.638428,1777.937012 
	C2585.782471,1783.770020 2577.343018,1789.784790 2570.012451,1797.609863 
	C2560.075684,1808.217041 2549.246094,1817.983643 2538.926514,1828.238281 
	C2534.255859,1832.879395 2532.118408,1838.546875 2532.240967,1845.305908 
	C2532.379150,1852.937988 2532.530762,1860.684448 2531.446045,1868.203613 
	C2527.527588,1895.367188 2523.348633,1922.499512 2518.785156,1949.562012 
	C2513.350586,1981.791016 2507.523926,2013.955444 2501.657227,2046.109375 
	C2498.762207,2061.975830 2495.524902,2077.783203 2492.206299,2093.567627 
	C2488.544189,2110.982910 2484.579834,2128.333984 2480.807617,2145.726318 
	C2478.459717,2156.551758 2480.227051,2160.350830 2489.810059,2166.296143 
	C2492.844482,2168.178711 2495.670166,2170.397705 2499.610352,2173.493408 
M646.878906,1536.120972 
	C652.589966,1535.911499 657.874084,1536.484863 663.025330,1539.840820 
	C668.902222,1543.669434 675.535156,1542.771851 682.280884,1540.424316 
	C680.256042,1532.968994 678.362488,1525.997314 676.306885,1518.428711 
	C662.127075,1513.563965 649.524902,1522.576782 635.970154,1526.540283 
	C633.426697,1535.488037 633.543030,1535.675171 642.110474,1536.114136 
	C643.107727,1536.165283 644.109863,1536.120972 646.878906,1536.120972 
z"/>
<path
	d="
M750.884888,2483.214355 
	C762.256836,2498.752686 772.416199,2514.374512 784.366943,2528.478516 
	C793.488892,2539.244141 801.643372,2551.016846 813.256775,2559.734131 
	C820.922241,2565.488037 826.816650,2573.600830 834.479980,2579.358398 
	C850.296143,2591.240967 864.936584,2604.661133 882.864441,2613.824707 
	C901.200439,2623.196533 919.502502,2632.215576 938.969177,2639.225586 
	C952.112793,2643.958740 965.014893,2648.656494 978.856140,2650.844971 
	C984.018433,2651.661377 988.927612,2654.092041 993.945007,2655.807373 
	C998.016418,2657.199463 1002.020752,2658.819580 1006.150879,2660.003174 
	C1047.272583,2671.788818 1089.041382,2680.531738 1131.566406,2685.176514 
	C1161.872314,2688.486328 1192.278809,2691.215820 1222.538208,2694.647705 
	C1250.000610,2697.761963 1277.376587,2699.361816 1304.908447,2700.125488 
	C1322.505249,2700.613770 1340.097778,2701.323730 1357.683838,2702.120361 
	C1372.601318,2702.795898 1387.499023,2703.984131 1402.420898,2704.452881 
	C1409.300293,2704.669189 1416.215942,2703.348389 1423.116089,2703.338135 
	C1487.778564,2703.243652 1552.441406,2703.207764 1617.103760,2703.319092 
	C1642.745483,2703.363770 1668.386475,2704.027832 1694.027710,2704.030518 
	C1718.998901,2704.032959 1743.981079,2703.924805 1768.938354,2703.187744 
	C1801.141357,2702.236328 1833.345215,2700.975830 1865.507202,2699.125000 
	C1881.696411,2698.193604 1897.769287,2695.387695 1913.941040,2693.951660 
	C1925.834229,2692.895020 1937.907349,2693.478760 1949.714600,2691.922607 
	C1970.041870,2689.244141 1990.250732,2685.618896 2010.461304,2682.114258 
	C2036.606079,2677.580078 2062.705078,2672.781250 2088.820068,2668.075928 
	C2091.430908,2667.605713 2094.117920,2667.282959 2096.598877,2666.408203 
	C2117.258545,2659.125732 2138.658203,2654.755859 2159.865479,2649.519287 
	C2172.884277,2646.304688 2185.106934,2639.895752 2197.725586,2635.020264 
	C2205.985107,2631.828613 2214.443848,2629.118896 2222.574219,2625.635986 
	C2231.039551,2622.010010 2239.635986,2618.387939 2247.423096,2613.552734 
	C2258.819824,2606.476807 2268.913574,2597.120117 2280.707764,2590.910400 
	C2298.036133,2581.786865 2308.348633,2565.268555 2323.243164,2553.722412 
	C2326.295898,2551.355957 2328.365967,2547.708740 2330.843018,2544.615234 
	C2333.731934,2541.007324 2336.419434,2537.226807 2339.459717,2533.753418 
	C2347.705811,2524.332764 2356.550537,2515.396973 2364.295654,2505.587891 
	C2372.261719,2495.499512 2380.816650,2485.367920 2386.244385,2473.897461 
	C2395.604248,2454.117432 2409.391602,2436.992188 2418.337891,2417.095947 
	C2419.278809,2415.003174 2419.618408,2412.638184 2420.574219,2410.554443 
	C2424.995850,2400.916504 2428.981445,2391.018066 2434.200195,2381.824219 
	C2438.915283,2373.517090 2442.527100,2373.075439 2451.279541,2376.961426 
	C2453.074463,2377.758057 2455.017334,2378.308594 2456.947021,2378.701904 
	C2472.489258,2381.872314 2488.085205,2384.792236 2503.583740,2388.161377 
	C2516.148682,2390.893311 2528.599609,2394.148926 2541.106201,2397.150635 
	C2542.691650,2397.531250 2544.296143,2397.900879 2545.913330,2398.068115 
	C2553.509766,2398.853760 2560.688477,2400.617188 2567.925781,2403.495605 
	C2577.428223,2407.274902 2587.694092,2409.154297 2597.659180,2411.744385 
	C2605.347168,2413.742676 2613.145508,2415.341797 2620.775879,2417.531982 
	C2637.350830,2422.290283 2653.945801,2427.016113 2670.353516,2432.310303 
	C2687.038086,2437.693604 2703.508301,2443.742188 2720.071777,2449.501465 
	C2733.482178,2454.164307 2746.945557,2458.683838 2760.278809,2463.558350 
	C2766.760986,2465.928467 2772.971436,2469.032471 2779.355469,2471.682617 
	C2790.703857,2476.393799 2802.214600,2480.735596 2813.418945,2485.763672 
	C2821.177246,2489.245361 2828.450928,2493.791504 2836.096924,2497.544189 
	C2843.209717,2501.034912 2850.698730,2503.779297 2857.714844,2507.440674 
	C2866.756836,2512.159912 2875.509277,2517.437256 2884.355225,2522.528076 
	C2889.729492,2525.621338 2894.806885,2529.353271 2900.436768,2531.855225 
	C2912.212646,2537.088135 2921.029541,2546.139893 2930.734863,2554.071533 
	C2932.015869,2555.118408 2933.145508,2556.465088 2934.589600,2557.179443 
	C2953.611084,2566.590576 2966.456055,2583.156982 2981.151611,2597.530029 
	C2984.626221,2600.928223 2986.442383,2605.961182 2989.651123,2609.701904 
	C3003.754150,2626.144531 3012.669434,2645.119141 3017.248535,2666.113281 
	C3020.682129,2681.854736 3018.793457,2697.602783 3015.631592,2713.180420 
	C3013.048340,2725.905762 3008.625000,2737.931396 3000.808838,2748.498047 
	C2997.670898,2752.740479 2994.763916,2757.173828 2991.390381,2761.218750 
	C2981.186768,2773.453613 2971.079590,2785.790771 2960.349365,2797.553711 
	C2956.430176,2801.849854 2950.881592,2804.667969 2946.047852,2808.120117 
	C2933.908691,2816.789795 2921.572021,2825.196289 2909.648438,2834.152344 
	C2893.252197,2846.468262 2875.350342,2856.457031 2856.966553,2864.988037 
	C2834.763672,2875.291992 2814.013672,2888.705322 2790.226318,2895.804199 
	C2778.252441,2899.377686 2767.092529,2905.601807 2755.381104,2910.156250 
	C2746.116943,2913.759277 2736.522217,2916.502686 2727.166260,2919.881104 
	C2712.923340,2925.023682 2698.905273,2930.829346 2684.522949,2935.531738 
	C2669.396973,2940.477783 2653.910156,2944.307129 2638.663574,2948.899170 
	C2620.636475,2954.328369 2602.869629,2960.707520 2584.675781,2965.476562 
	C2563.528076,2971.019775 2542.068115,2975.395752 2520.688232,2980.022461 
	C2508.044922,2982.758545 2495.242676,2984.760742 2482.603516,2987.514160 
	C2457.126465,2993.063721 2431.815430,2999.426025 2406.239014,3004.450684 
	C2386.401367,3008.347900 2366.223145,3010.476074 2346.273193,3013.844971 
	C2327.011475,3017.097168 2307.871094,3021.058350 2288.637207,3024.482910 
	C2244.598145,3032.323486 2199.994873,3035.856934 2155.695068,3041.714355 
	C2138.930664,3043.931152 2122.206543,3046.591309 2105.382568,3048.190918 
	C2074.712891,3051.106934 2044.550537,3058.515137 2013.403076,3057.580078 
	C2002.614502,3057.256348 1991.767334,3060.718262 1980.878418,3061.530273 
	C1956.396729,3063.356445 1931.873901,3064.637451 1907.364502,3066.083252 
	C1877.547485,3067.842285 1847.728882,3069.575684 1817.906738,3071.244629 
	C1810.272339,3071.671875 1802.622559,3071.835693 1794.978638,3072.083740 
	C1774.053955,3072.763428 1753.130005,3073.472900 1732.203125,3074.078369 
	C1707.277222,3074.799316 1682.349731,3075.479980 1657.420532,3076.075439 
	C1637.137695,3076.560059 1616.847290,3076.753174 1596.568359,3077.351074 
	C1585.958862,3077.663818 1575.370972,3078.994385 1564.765991,3079.094238 
	C1552.823120,3079.206055 1540.865967,3078.585449 1528.926147,3078.040283 
	C1511.351562,3077.238281 1493.722168,3076.877441 1476.231201,3075.158691 
	C1439.319458,3071.531494 1402.349121,3074.388428 1365.432739,3073.217041 
	C1345.870483,3072.596191 1326.338379,3071.079590 1306.783081,3070.173096 
	C1295.821289,3069.664795 1284.837891,3069.641113 1273.867920,3069.283936 
	C1254.936401,3068.667725 1235.990845,3068.264404 1217.083008,3067.204102 
	C1199.869019,3066.238525 1182.697388,3064.519287 1165.507080,3063.131836 
	C1152.954590,3062.118896 1140.313354,3061.729248 1127.867554,3059.963623 
	C1100.304565,3056.052734 1072.231201,3057.133545 1044.890015,3050.889893 
	C1036.237915,3048.914062 1027.125366,3048.937256 1018.217224,3048.114014 
	C1016.232544,3047.930420 1014.196106,3048.232910 1012.225708,3047.981201 
	C971.786499,3042.814453 931.336060,3037.730225 890.928772,3032.323730 
	C876.837036,3030.437988 862.922302,3027.148926 848.808960,3025.523193 
	C819.188171,3022.111572 790.214783,3014.966797 760.718506,3010.912354 
	C746.924927,3009.016357 733.058350,3007.489502 719.380371,3004.955566 
	C703.453369,3002.005615 687.697205,2998.133789 671.865540,2994.668213 
	C656.415771,2991.285645 640.953735,2987.958252 625.516785,2984.518311 
	C610.362305,2981.141602 595.248352,2977.582031 580.086914,2974.238037 
	C568.785095,2971.745117 557.253967,2970.107666 546.149414,2966.948486 
	C528.703735,2961.985596 511.563293,2955.959229 494.229706,2950.589111 
	C486.009705,2948.042725 477.709961,2945.678467 469.327515,2943.747070 
	C450.915741,2939.504639 433.695831,2932.114990 416.278748,2925.031738 
	C403.451233,2919.814697 389.681366,2916.956787 376.687103,2912.096924 
	C360.891571,2906.188965 345.486450,2899.241455 329.875183,2892.834229 
	C325.581085,2891.071777 321.042419,2889.883301 316.812134,2887.992676 
	C309.555817,2884.749268 302.437805,2881.193359 295.297363,2877.695801 
	C293.220642,2876.678711 291.376740,2874.739258 289.233215,2874.383301 
	C280.424316,2872.919434 274.422302,2866.200195 266.670258,2862.821289 
	C265.172455,2862.168457 264.003693,2860.677490 262.483887,2860.171143 
	C245.388321,2854.475098 231.398300,2843.076416 216.007950,2834.343994 
	C202.849731,2826.878174 191.267059,2816.586670 179.196411,2807.273926 
	C173.161331,2802.617676 167.036880,2797.862793 161.936630,2792.257324 
	C153.058456,2782.499268 144.927368,2772.060059 136.530365,2761.867188 
	C135.702820,2760.862793 135.426361,2759.360596 134.519608,2758.471436 
	C120.060226,2744.291992 115.829857,2725.075439 110.235199,2706.909180 
	C104.085426,2686.940430 107.112953,2666.729980 114.519012,2647.424072 
	C122.683327,2626.141602 134.461975,2606.711426 150.256683,2590.421875 
	C160.761032,2579.588135 170.775635,2567.870605 184.575989,2560.384033 
	C190.850174,2556.980225 195.781677,2551.154785 201.491394,2546.641602 
	C206.415100,2542.750000 211.306091,2538.700195 216.686356,2535.524902 
	C234.269028,2525.147705 251.788681,2514.604248 269.860657,2505.132080 
	C289.240631,2494.974365 309.145935,2485.801758 328.981110,2476.539795 
	C334.641388,2473.896973 340.940979,2472.661133 346.798218,2470.394531 
	C365.299133,2463.234619 383.601074,2455.540039 402.233826,2448.748779 
	C414.044098,2444.444092 426.306213,2441.378662 438.366119,2437.758789 
	C439.639648,2437.376709 441.077148,2437.261475 442.165253,2436.583740 
	C455.074432,2428.541504 470.338623,2427.188721 484.232483,2421.855469 
	C495.898529,2417.377441 508.524536,2415.443115 520.649902,2412.107422 
	C534.000916,2408.435059 547.189209,2404.154297 560.588196,2400.677002 
	C575.384155,2396.837158 590.285950,2393.360596 605.237854,2390.177979 
	C623.413757,2386.309570 641.708679,2383.003174 659.911560,2379.256836 
	C665.085083,2378.192139 670.093384,2376.348389 675.219421,2375.024414 
	C685.301147,2372.419922 693.765747,2376.394531 698.095215,2385.898193 
	C705.436523,2402.013184 712.473877,2418.269775 720.017334,2434.288574 
	C722.091797,2438.693848 725.811096,2442.294922 728.243530,2446.567871 
	C732.145325,2453.421875 735.282227,2460.722168 739.350708,2467.467041 
	C742.574951,2472.811768 746.711487,2477.606201 750.884888,2483.214355 
z"/>
<path
	d="
M1637.061279,1239.043701 
	C1640.671509,1235.077759 1643.655396,1231.485352 1646.968750,1228.228271 
	C1658.572510,1216.821899 1669.416260,1204.414062 1682.160522,1194.447510 
	C1703.414673,1177.825684 1725.103882,1161.777954 1748.351562,1147.718384 
	C1769.138184,1135.147095 1791.118530,1125.254150 1812.534790,1114.106201 
	C1826.035645,1107.078369 1839.837402,1100.915161 1854.406128,1096.338013 
	C1880.214844,1088.229004 1905.490845,1078.434326 1932.304443,1073.654663 
	C1949.891357,1070.519531 1967.244263,1066.078491 1984.821899,1062.881592 
	C2002.084717,1059.741943 2019.487305,1057.353760 2036.855713,1054.822510 
	C2041.105103,1054.203247 2045.474976,1054.462524 2049.763428,1054.048706 
	C2054.697754,1053.572876 2059.614502,1052.873047 2064.517090,1052.125977 
	C2067.453369,1051.678467 2070.345215,1050.452271 2073.261963,1050.435303 
	C2094.524170,1050.312012 2115.788330,1050.358643 2137.051025,1050.470093 
	C2141.682373,1050.494507 2146.312744,1050.968384 2150.940430,1051.285156 
	C2166.817627,1052.371582 2182.697510,1053.431641 2198.569092,1054.597534 
	C2208.808105,1055.349731 2219.150879,1055.578003 2229.240967,1057.270142 
	C2245.840088,1060.053955 2262.254150,1063.924072 2278.780273,1067.164307 
	C2290.176270,1069.398926 2301.876221,1070.468628 2313.002197,1073.609985 
	C2332.755615,1079.187012 2352.170654,1085.959106 2371.738281,1092.196289 
	C2380.546387,1095.003906 2389.719971,1096.959106 2398.126221,1100.665405 
	C2411.413086,1106.523560 2424.256104,1113.408447 2437.163574,1120.097290 
	C2444.703857,1124.004761 2452.329834,1127.897827 2459.323486,1132.667969 
	C2466.702148,1137.700684 2473.620117,1143.493530 2480.297852,1149.449463 
	C2490.404053,1158.463501 2500.604492,1167.456055 2509.886719,1177.286621 
	C2520.156250,1188.162598 2526.797119,1201.317627 2532.244385,1215.377441 
	C2534.885742,1222.194702 2537.138916,1228.719604 2538.647217,1235.912476 
	C2541.121338,1247.710327 2537.545654,1258.992310 2537.556641,1270.525635 
	C2537.560791,1274.854492 2534.722656,1279.316284 2532.712402,1283.492065 
	C2527.131104,1295.086426 2521.773438,1306.831543 2515.384277,1317.976318 
	C2511.989502,1323.897949 2507.014893,1329.080444 2502.093750,1333.926514 
	C2491.200439,1344.653564 2480.226562,1355.348999 2468.639160,1365.305176 
	C2459.912109,1372.803711 2450.182617,1379.135864 2440.896240,1385.982788 
	C2438.771240,1387.549316 2436.648926,1389.120605 2434.495605,1390.647461 
	C2429.651123,1394.082275 2424.923828,1397.706543 2419.903076,1400.862183 
	C2411.339844,1406.243774 2402.795898,1411.718384 2393.866455,1416.439941 
	C2380.132324,1423.702026 2366.067139,1430.337402 2352.165771,1437.285156 
	C2345.754883,1440.489014 2339.391357,1443.788940 2333.023438,1447.078125 
	C2331.549561,1447.839478 2330.222656,1448.929199 2328.697021,1449.541260 
	C2305.018555,1459.041870 2281.313477,1468.476929 2257.625488,1477.953857 
	C2248.450684,1481.624512 2239.411133,1485.666260 2230.112793,1488.987183 
	C2219.580566,1492.749146 2208.775635,1495.741211 2198.184570,1499.347900 
	C2188.478271,1502.653320 2179.028809,1506.756226 2169.236328,1509.757202 
	C2149.028564,1515.950195 2128.673340,1521.662109 2108.368408,1527.535645 
	C2086.712891,1533.799683 2065.055908,1540.059326 2043.371826,1546.222534 
	C2040.197876,1547.124512 2036.833984,1547.337524 2033.619873,1548.123047 
	C2027.867676,1549.528931 2022.146118,1551.069458 2016.446167,1552.675781 
	C2014.217896,1553.303711 2012.130615,1554.784180 2009.897705,1554.989380 
	C1985.011230,1557.275146 1962.082886,1567.969482 1937.306763,1571.266724 
	C1912.684570,1574.543579 1888.444580,1580.631836 1863.973999,1585.145752 
	C1856.827637,1586.464111 1849.462280,1586.582642 1842.204346,1587.318970 
	C1840.239502,1587.518311 1838.259277,1587.815918 1836.356689,1588.329834 
	C1831.317749,1589.690796 1826.400757,1591.953247 1821.287964,1592.513306 
	C1796.035156,1595.279297 1770.735352,1597.617188 1745.450562,1600.089844 
	C1735.892334,1601.024658 1726.329346,1601.911865 1716.770020,1602.835083 
	C1715.780518,1602.930786 1714.797119,1603.272705 1713.816650,1603.250488 
	C1685.301758,1602.604370 1656.919922,1607.160889 1628.366821,1605.329346 
	C1609.178467,1604.098755 1589.975220,1603.067627 1570.767944,1602.176147 
	C1559.470825,1601.651855 1548.087036,1602.244263 1536.859863,1601.138916 
	C1520.417114,1599.520386 1504.088989,1596.760132 1487.692993,1594.633545 
	C1481.774414,1593.865967 1475.694580,1594.056641 1469.869995,1592.897217 
	C1437.650269,1586.484131 1405.041016,1581.412842 1373.428101,1572.737427 
	C1341.410522,1563.950928 1309.941650,1552.705933 1279.631836,1538.804565 
	C1268.368408,1533.638916 1257.751953,1527.069214 1246.520142,1521.826294 
	C1227.801880,1513.088623 1211.237427,1501.219238 1195.389160,1488.199219 
	C1186.948120,1481.264404 1177.704468,1475.056763 1170.351440,1467.107178 
	C1159.816650,1455.717407 1149.828735,1443.602417 1141.229492,1430.714600 
	C1134.962524,1421.322144 1131.200806,1410.233398 1126.526123,1399.809326 
	C1120.087891,1385.452026 1116.554321,1370.156982 1116.604736,1354.619507 
	C1116.669434,1334.703491 1118.730225,1314.890259 1127.756226,1296.421753 
	C1132.061157,1287.613281 1134.927246,1278.111084 1138.720581,1269.038208 
	C1140.108521,1265.718262 1141.971680,1262.483765 1144.166382,1259.632568 
	C1158.694214,1240.758301 1172.680298,1221.400879 1188.250244,1203.419434 
	C1198.063843,1192.085938 1210.184082,1182.713135 1221.519409,1172.744873 
	C1231.959717,1163.563354 1242.667603,1154.681152 1253.402832,1145.843262 
	C1256.450562,1143.334106 1259.903809,1141.262817 1263.347656,1139.300293 
	C1272.240845,1134.232544 1279.413330,1126.234619 1289.819824,1123.732910 
	C1290.423706,1123.587524 1291.103760,1123.152344 1291.453613,1122.647705 
	C1297.386597,1114.091187 1306.296997,1109.643433 1315.224731,1105.138306 
	C1319.294800,1103.084351 1323.186890,1100.655396 1327.055664,1098.230591 
	C1331.811279,1095.249878 1336.446533,1092.077637 1341.154907,1089.020630 
	C1346.712402,1085.412231 1352.320557,1081.881104 1357.857788,1078.242188 
	C1374.079468,1067.582031 1390.276978,1056.885132 1406.484619,1046.203613 
	C1406.761597,1046.020874 1407.028442,1045.799561 1407.333374,1045.685669 
	C1425.392212,1038.938721 1439.068359,1025.279663 1455.047852,1015.247986 
	C1465.893433,1008.439270 1475.728516,1000.040955 1486.250977,992.690491 
	C1494.615723,986.847107 1503.363403,981.554199 1511.888550,975.936890 
	C1515.739746,973.399292 1519.375366,970.529907 1523.264160,968.054871 
	C1529.374756,964.165527 1535.650513,960.536133 1541.785645,956.684021 
	C1544.023560,955.278870 1546.082642,953.582092 1548.184204,951.967285 
	C1560.033081,942.862915 1571.855347,933.723816 1583.714478,924.632874 
	C1598.430054,913.352234 1613.169067,902.102173 1627.906738,890.850647 
	C1631.281128,888.274414 1634.731445,885.796509 1638.079102,883.186340 
	C1654.786499,870.159607 1671.469604,857.101624 1688.168457,844.063721 
	C1689.198608,843.259399 1690.394653,842.644775 1691.338867,841.756409 
	C1709.193481,824.958557 1727.303101,808.418762 1744.779053,791.234863 
	C1763.426147,772.899353 1781.606934,754.081726 1799.728271,735.221863 
	C1811.720337,722.741394 1821.042114,708.171509 1830.636353,693.849365 
	C1832.555786,678.526367 1841.977783,664.847107 1840.333740,648.692688 
	C1839.800049,643.449463 1840.203613,638.104980 1840.266968,632.807922 
	C1840.411499,620.738403 1839.173096,608.931580 1833.879639,597.861084 
	C1833.450073,596.962646 1832.778931,596.116211 1832.599121,595.173279 
	C1831.924805,591.635437 1832.420166,587.434814 1830.659912,584.618347 
	C1822.105957,570.931641 1814.012085,556.826294 1801.723267,545.901367 
	C1787.534058,533.287048 1772.114380,523.425842 1753.776001,516.985107 
	C1738.888794,511.756500 1724.172607,510.209473 1708.954590,510.186798 
	C1695.002686,510.166016 1681.032471,510.641663 1667.102905,511.456909 
	C1656.602051,512.071472 1647.296143,517.039124 1638.379272,522.007568 
	C1630.874756,526.189026 1626.475464,533.966064 1624.663696,542.036194 
	C1622.289062,552.613403 1621.625366,563.582520 1620.387817,574.401611 
	C1620.087769,577.025208 1619.767456,579.941956 1620.576904,582.346741 
	C1624.429565,593.790710 1623.224976,604.744324 1620.542603,616.435913 
	C1617.972046,627.639282 1612.978271,637.047302 1605.740479,645.123108 
	C1591.752930,660.730530 1576.918457,675.579590 1562.418457,690.727112 
	C1555.310425,698.152588 1549.749390,706.635864 1544.013550,715.155945 
	C1537.268555,725.174744 1535.910767,736.614868 1531.858154,747.306702 
	C1525.639526,763.713318 1518.455566,779.577148 1506.115967,792.769531 
	C1495.044434,804.606201 1484.396851,816.720276 1470.978149,826.079773 
	C1464.547729,830.565063 1457.707397,828.260315 1456.434448,820.532104 
	C1456.112549,818.577759 1456.270752,816.542908 1456.225708,814.544617 
	C1455.951294,802.341309 1450.521729,792.607849 1442.073730,784.149414 
	C1439.055786,781.127686 1435.971558,777.818054 1434.134155,774.047058 
	C1430.609253,766.812012 1425.832764,760.534912 1419.987549,755.354553 
	C1408.864990,745.497192 1401.023438,733.174500 1393.122925,720.962158 
	C1383.625244,706.280518 1383.904419,688.411987 1395.247925,673.562866 
	C1397.702271,670.349854 1400.570557,667.657837 1404.210083,669.299438 
	C1406.728638,670.435486 1409.282837,673.785156 1409.834229,676.542969 
	C1411.256714,683.656738 1412.555054,691.048462 1412.133057,698.225098 
	C1411.247803,713.277222 1423.616333,726.767273 1440.646606,728.194275 
	C1450.281616,729.001648 1460.289185,729.260986 1469.814209,725.402893 
	C1475.865356,722.951904 1477.667236,719.253052 1473.598999,714.124146 
	C1469.683594,709.187744 1465.222900,704.673401 1460.878296,700.090637 
	C1454.938232,693.825073 1455.655518,685.400330 1453.933350,677.888367 
	C1452.951050,673.603699 1458.109009,670.977661 1462.198730,673.050232 
	C1463.362549,673.640015 1464.345215,674.619568 1465.344604,675.496094 
	C1474.009888,683.095886 1483.612183,682.209412 1493.231934,678.114319 
	C1499.916138,675.268799 1506.893921,672.461792 1512.583862,668.121277 
	C1517.908936,664.059143 1521.771851,658.051208 1526.138794,652.783875 
	C1527.170776,651.539185 1527.361206,649.583923 1528.418579,648.375305 
	C1537.603149,637.876343 1538.988281,624.643860 1541.727295,611.787537 
	C1546.071655,591.395996 1550.981323,571.125244 1555.375610,550.743835 
	C1556.625977,544.945007 1557.327271,538.954773 1557.543823,533.025452 
	C1557.791504,526.241821 1552.604980,523.514587 1546.240356,526.252808 
	C1542.962524,527.663025 1539.281128,528.107483 1535.921875,529.362366 
	C1530.064941,531.550232 1523.588745,533.031067 1518.686890,536.609314 
	C1510.713013,542.430115 1503.565186,549.466614 1496.520386,556.445984 
	C1492.024902,560.899597 1487.114136,561.689819 1481.137207,561.414673 
	C1470.930420,560.944824 1460.640015,560.669983 1450.468140,561.429321 
	C1434.067261,562.653564 1419.238281,569.547180 1404.382935,575.985291 
	C1397.404785,579.009460 1390.784790,582.934937 1383.668091,585.538025 
	C1378.958618,587.260681 1377.750977,590.024841 1377.619751,594.454956 
	C1377.263184,606.491394 1382.933228,616.093384 1389.676636,625.298279 
	C1390.243408,626.071899 1391.325928,626.451233 1391.969604,627.187805 
	C1395.419067,631.135071 1395.841064,635.619324 1393.141357,638.759338 
	C1390.802246,641.479919 1384.590942,642.587830 1381.111572,640.053162 
	C1364.736816,628.125000 1348.240845,616.275391 1339.860352,596.658813 
	C1337.405640,590.912598 1327.558960,587.885193 1322.168945,590.771301 
	C1318.125610,592.936218 1315.924927,603.437378 1319.338989,608.010315 
	C1324.417603,614.812500 1327.179443,623.474915 1335.251099,628.013550 
	C1336.710938,628.834473 1337.974854,631.245239 1338.053955,632.980042 
	C1338.163452,635.384644 1337.789307,639.148804 1336.311890,639.968201 
	C1334.206299,641.135925 1330.034058,641.281860 1328.278442,639.906494 
	C1320.798340,634.046326 1313.198853,628.355286 1307.134644,620.709167 
	C1299.145264,610.635986 1290.360596,601.159302 1281.506470,591.816162 
	C1273.375610,583.236267 1266.815552,574.010620 1263.671631,562.364136 
	C1262.509277,558.058105 1260.167114,553.417908 1256.959595,550.443359 
	C1248.506836,542.604431 1246.729858,532.095154 1243.823486,521.938843 
	C1243.198364,519.753967 1242.958374,517.442627 1242.184937,515.319275 
	C1238.613647,505.514557 1240.127197,499.637543 1249.526001,496.021027 
	C1265.094116,490.030579 1281.241211,486.091248 1298.236938,488.738098 
	C1310.363892,490.626709 1322.548828,492.192871 1334.611328,494.425171 
	C1341.547241,495.708801 1347.422729,494.241241 1353.518188,490.971344 
	C1360.464233,487.245117 1368.118408,484.848633 1375.112183,481.198639 
	C1382.442871,477.372925 1389.595459,473.092041 1396.387207,468.377838 
	C1404.176392,462.971252 1406.216675,455.297913 1404.966675,445.808929 
	C1401.343262,418.303192 1408.578247,394.426941 1430.838745,376.564758 
	C1435.419434,372.889038 1440.927490,370.102112 1446.400391,367.864655 
	C1455.606201,364.100891 1465.084229,360.978302 1474.538208,357.859863 
	C1477.648804,356.833832 1481.018677,356.406311 1484.305298,356.137268 
	C1492.920410,355.431854 1494.626953,354.130005 1497.267090,346.553894 
	C1500.308838,337.825897 1502.743530,328.736572 1506.979004,320.604828 
	C1516.561523,302.206238 1526.692261,284.005005 1541.388306,268.987793 
	C1554.566284,255.521820 1567.845947,242.147995 1581.383667,229.046616 
	C1584.854858,225.687408 1589.512207,223.571075 1593.548462,220.773987 
	C1597.867920,217.780624 1602.070190,214.618347 1606.372925,211.600143 
	C1613.677612,206.476028 1620.700439,200.845856 1628.417236,196.435471 
	C1643.015869,188.092072 1657.869507,180.155716 1672.920166,172.658310 
	C1681.141968,168.562744 1689.896240,165.466782 1698.569092,162.363983 
	C1708.802490,158.702911 1719.206299,155.517654 1729.539551,152.135834 
	C1731.431396,151.516663 1733.305054,150.785278 1735.244141,150.375580 
	C1748.526001,147.569366 1762.113281,145.782776 1775.036865,141.822739 
	C1789.184814,137.487549 1803.551392,132.609406 1816.296265,125.304710 
	C1829.054932,117.992088 1840.997070,108.646767 1850.473022,96.871063 
	C1856.277588,89.657867 1862.149292,82.495895 1867.792114,75.158104 
	C1868.901367,73.715675 1868.991699,71.527054 1869.741699,69.763290 
	C1871.290405,66.122169 1872.651611,62.347195 1874.666504,58.971516 
	C1877.522339,54.187206 1880.910522,49.721584 1884.049194,45.104881 
	C1886.843262,40.995247 1889.957031,41.234665 1892.062988,45.953686 
	C1892.988037,48.026470 1893.904419,50.430683 1893.740723,52.602703 
	C1893.160156,60.304489 1893.596680,68.088402 1890.112915,75.497269 
	C1886.603760,82.960327 1884.165771,90.922493 1881.120972,98.611504 
	C1880.271851,100.755966 1879.129150,102.844627 1877.794312,104.727180 
	C1857.918091,132.758972 1835.913696,158.830444 1808.269653,179.654282 
	C1803.050537,183.585709 1797.640015,187.267609 1792.495850,191.292358 
	C1786.007202,196.368927 1780.193604,202.500336 1773.199219,206.692093 
	C1763.219360,212.673065 1754.617554,220.364136 1745.183350,226.894104 
	C1735.531616,233.574707 1724.211914,237.841202 1713.642090,243.203201 
	C1710.692139,244.699707 1707.477905,245.942581 1705.018311,248.043304 
	C1703.422607,249.406143 1702.974854,252.112869 1701.426025,255.500946 
	C1706.598999,255.500946 1710.242065,256.034088 1713.680786,255.420639 
	C1762.191284,246.766342 1811.196289,249.004776 1860.011963,249.690018 
	C1883.085327,250.013901 1906.389771,253.234467 1929.057007,257.791443 
	C1952.637207,262.531921 1976.416260,267.937469 1997.732178,280.198761 
	C2019.279663,284.206665 2035.155640,299.249298 2053.840820,308.823151 
	C2066.003418,315.054840 2075.156738,324.417725 2084.637939,333.692963 
	C2089.135742,338.093109 2094.762451,341.476562 2098.703125,346.283508 
	C2110.645996,360.851929 2123.152588,375.160461 2133.291016,390.949829 
	C2143.593262,406.994476 2152.167236,424.312317 2159.925049,441.771637 
	C2165.407471,454.110413 2167.964355,467.718384 2172.371338,480.573181 
	C2178.685547,498.990936 2182.992188,517.897583 2186.789062,536.927307 
	C2188.143066,543.713684 2188.266846,550.736450 2189.197266,557.618042 
	C2191.639893,575.683899 2194.854492,593.639587 2193.776611,612.046814 
	C2193.176270,622.299805 2193.670898,632.600891 2188.806641,642.126892 
	C2188.245361,643.226624 2188.340088,644.732361 2188.358643,646.046692 
	C2188.598389,663.005249 2181.036621,678.067749 2177.122070,694.023926 
	C2172.723145,711.954285 2164.525635,728.200989 2157.888916,745.127075 
	C2154.695068,753.272766 2149.846191,760.776978 2145.654297,768.521545 
	C2142.711914,773.957520 2138.749756,779.012573 2136.777100,784.763916 
	C2133.429443,794.523804 2125.724609,801.234863 2120.947754,809.758606 
	C2113.710449,822.673035 2103.292480,832.815979 2094.390869,844.259155 
	C2089.580322,850.442932 2084.921387,856.804260 2079.561279,862.488586 
	C2067.108643,875.694214 2054.813232,889.129639 2041.439697,901.362732 
	C2027.821899,913.819214 2011.883545,923.862244 1999.011963,936.974976 
	C1987.034790,949.176636 1973.935669,959.305603 1959.816772,968.579529 
	C1955.722412,971.269165 1952.931519,975.870850 1949.023804,978.933350 
	C1942.545532,984.010620 1935.591553,988.475891 1928.942627,993.341919 
	C1924.121094,996.870544 1919.473877,1000.636719 1914.740112,1004.285828 
	C1906.365601,1010.741577 1897.946899,1017.140991 1889.620728,1023.658508 
	C1884.969849,1027.299194 1880.741699,1031.540405 1875.850708,1034.802979 
	C1856.882812,1047.455566 1837.822510,1059.976318 1818.605835,1072.247314 
	C1804.696533,1081.129517 1790.650269,1089.825439 1776.350830,1098.058472 
	C1767.237183,1103.305786 1757.439819,1107.349976 1748.145508,1112.302490 
	C1735.712280,1118.927612 1723.564453,1126.089233 1711.116699,1132.685547 
	C1700.084473,1138.531738 1688.553101,1143.469604 1677.714722,1149.638672 
	C1667.095825,1155.682617 1657.462158,1163.511108 1646.680420,1169.200073 
	C1635.812012,1174.934814 1626.322021,1182.463501 1616.351440,1189.378174 
	C1607.112427,1195.785522 1598.080688,1202.495483 1589.036499,1209.178955 
	C1582.374756,1214.102051 1575.848267,1219.207886 1569.240967,1224.205322 
	C1568.183716,1225.005005 1566.866455,1225.504272 1565.926880,1226.409546 
	C1550.373047,1241.395630 1534.837280,1256.400269 1519.355957,1271.461060 
	C1515.538208,1275.174927 1511.879517,1279.056763 1508.239014,1282.946899 
	C1505.514893,1285.857544 1502.868774,1288.847656 1500.306396,1291.901855 
	C1487.406128,1307.278564 1495.644531,1324.117310 1513.222534,1331.881592 
	C1534.784546,1341.405640 1557.933716,1340.127808 1579.889038,1345.557373 
	C1599.911133,1350.508911 1619.991943,1349.579834 1640.058838,1349.894043 
	C1670.350464,1350.368164 1700.670532,1349.875854 1730.960449,1349.092285 
	C1740.780396,1348.838257 1750.500488,1345.859375 1760.342163,1345.049805 
	C1777.155762,1343.666626 1794.051025,1343.286133 1810.869751,1341.951538 
	C1821.436768,1341.113159 1831.938965,1339.386353 1842.436279,1337.829224 
	C1843.869141,1337.616699 1845.019165,1335.898682 1846.455811,1335.196289 
	C1847.878662,1334.500610 1849.906616,1333.358765 1850.968994,1333.869385 
	C1862.046143,1339.193481 1873.130127,1334.798462 1883.973633,1333.583984 
	C1901.412476,1331.630859 1918.679565,1328.134644 1936.013672,1325.257080 
	C1951.923950,1322.615845 1967.872192,1320.170776 1983.718628,1317.187622 
	C1996.072388,1314.862061 2008.305908,1311.888916 2020.574219,1309.120728 
	C2037.051758,1305.402832 2053.643066,1302.092407 2069.935791,1297.683838 
	C2082.400635,1294.310669 2094.568848,1289.751953 2106.705078,1285.276001 
	C2121.626221,1279.772583 2136.534912,1274.170776 2151.118652,1267.849609 
	C2156.425537,1265.549316 2160.872559,1261.172974 2165.534912,1257.517944 
	C2167.879150,1255.680176 2169.566162,1252.952271 2172.005859,1251.298706 
	C2177.936768,1247.278564 2181.153564,1242.872192 2180.016357,1234.833740 
	C2178.985840,1227.548950 2175.753174,1223.263916 2170.282471,1218.711426 
	C2151.296387,1202.912720 2128.760010,1194.750732 2106.256836,1185.814941 
	C2087.396973,1178.325928 2068.193848,1172.575073 2048.437500,1168.830688 
	C2033.500854,1165.999512 2018.243896,1164.189331 2003.057739,1163.495605 
	C1978.141235,1162.357544 1953.166992,1162.216553 1928.216064,1162.165405 
	C1899.568115,1162.106689 1871.571899,1167.773682 1842.536133,1172.220337 
	C1845.549683,1178.011475 1848.722534,1180.441650 1854.959229,1180.261353 
	C1878.252197,1179.588867 1901.173950,1182.974243 1924.219849,1186.326172 
	C1942.393188,1188.969360 1959.906616,1193.723267 1977.510986,1198.217896 
	C1989.298706,1201.227661 2000.504150,1206.528687 2011.952393,1210.851318 
	C2016.457031,1212.552246 2019.077026,1215.509277 2018.333374,1220.713013 
	C2017.618164,1225.718628 2013.651489,1226.855591 2009.788574,1227.810791 
	C2002.701294,1229.563232 1995.298950,1230.325439 1988.459961,1232.729248 
	C1979.120239,1236.012207 1970.084717,1240.231323 1961.100464,1244.437134 
	C1949.707031,1249.770508 1938.415161,1255.337646 1927.246460,1261.126099 
	C1922.905273,1263.375854 1919.012451,1266.493896 1914.927612,1269.234863 
	C1903.674561,1276.785889 1892.108398,1283.922485 1881.301514,1292.066406 
	C1875.034302,1296.789307 1870.159180,1303.318848 1864.339600,1308.690796 
	C1860.485596,1312.248413 1855.748779,1314.863159 1851.975708,1318.491455 
	C1845.909912,1324.324585 1838.533447,1324.787964 1830.796387,1325.441284 
	C1822.639648,1326.129883 1814.619019,1328.753540 1806.470947,1329.156738 
	C1784.225952,1330.256958 1761.947510,1330.731323 1739.677856,1331.264648 
	C1722.039551,1331.687134 1704.068848,1329.788452 1686.823120,1332.539429 
	C1654.938721,1337.625488 1623.090820,1333.815308 1591.277954,1335.252319 
	C1584.919556,1335.539551 1578.003296,1335.774048 1574.801636,1328.750732 
	C1571.650391,1321.838135 1575.004395,1316.101685 1579.380005,1310.600708 
	C1589.462891,1297.924561 1599.823364,1285.406860 1608.981201,1272.076294 
	C1617.119507,1260.229614 1627.198120,1250.240601 1637.061279,1239.043701 
M1400.688354,696.639160 
	C1399.979614,697.892578 1399.257446,699.139343 1398.626221,700.430786 
	C1398.606934,700.470154 1399.534790,700.972656 1400.021240,701.259277 
	C1400.533691,700.058960 1401.046021,698.858643 1400.688354,696.639160 
z"/>
<path
	d="
M1018.432739,1435.545410 
	C1021.212463,1438.484375 1023.763000,1440.713989 1025.698486,1443.388916 
	C1029.074951,1448.055420 1033.052979,1451.718750 1038.629150,1453.524536 
	C1042.950195,1454.923950 1045.431030,1457.985474 1047.003906,1461.748901 
	C1046.610229,1462.467896 1046.216431,1463.186890 1045.822632,1463.905884 
	C1041.593140,1462.728271 1037.211426,1461.926880 1033.167358,1460.290894 
	C1025.810913,1457.314697 1018.519348,1454.106201 1011.467834,1450.475586 
	C1007.453796,1448.408936 1003.996399,1445.274536 1000.238403,1442.693604 
	C995.439087,1439.397583 990.499268,1436.299927 985.780090,1432.894775 
	C976.085754,1425.899780 970.085022,1415.862427 964.362976,1405.755493 
	C960.799011,1399.460449 958.182861,1392.636475 954.951172,1386.144653 
	C942.818359,1361.771851 938.627014,1335.829468 940.491821,1308.947510 
	C941.542664,1293.799561 944.443848,1278.828857 950.174927,1264.630859 
	C952.368103,1259.197632 954.923645,1253.846558 957.908020,1248.810059 
	C963.719971,1239.001587 969.555237,1229.323486 976.805115,1220.278931 
	C982.723999,1212.894531 988.312683,1205.068604 994.695984,1198.019043 
	C998.634949,1193.668945 1003.688293,1190.322876 1008.275391,1186.567627 
	C1010.058167,1185.108276 1012.005066,1183.846069 1013.757568,1182.353516 
	C1023.098511,1174.397583 1032.357910,1166.345215 1041.764160,1158.467651 
	C1043.177979,1157.283691 1045.202148,1156.811157 1046.969849,1156.071411 
	C1049.084473,1155.186646 1051.763062,1154.914429 1053.271118,1153.433594 
	C1063.860229,1143.034912 1077.312622,1137.118896 1089.787842,1129.687134 
	C1092.599243,1128.012451 1095.730469,1126.883057 1098.668335,1125.410645 
	C1102.804077,1123.337646 1108.058350,1122.144043 1110.780762,1118.867920 
	C1117.762085,1110.466309 1127.896973,1107.679077 1136.634521,1102.491333 
	C1147.694214,1095.924805 1159.038452,1089.822510 1170.401367,1083.786133 
	C1180.911011,1078.203003 1191.673828,1073.097290 1202.197632,1067.540283 
	C1209.413208,1063.730225 1216.547607,1059.726685 1223.467407,1055.407593 
	C1230.500244,1051.018066 1237.180054,1046.067261 1244.093628,1041.481445 
	C1265.908691,1027.011353 1286.196655,1010.553345 1306.273193,993.819885 
	C1307.801514,992.546082 1309.272339,991.125916 1310.470581,989.546631 
	C1317.249390,980.612366 1324.318115,971.865356 1330.566895,962.569641 
	C1340.261597,948.147400 1346.926514,932.376343 1349.772949,915.081360 
	C1350.385864,911.357117 1351.945679,907.788696 1353.751831,901.937378 
	C1356.582031,905.629395 1358.956787,907.353210 1359.332031,909.437134 
	C1362.032837,924.435852 1363.834717,938.881836 1357.516479,954.212891 
	C1349.343018,974.045349 1338.984375,991.991516 1326.114624,1009.090515 
	C1317.274902,1020.835022 1305.813965,1029.770752 1296.698853,1041.026733 
	C1296.091064,1041.777344 1295.160767,1042.286377 1294.333252,1042.836792 
	C1279.296265,1052.836426 1264.449829,1063.140015 1249.158569,1072.734863 
	C1231.043335,1084.101562 1212.701050,1095.129395 1194.159424,1105.786011 
	C1179.933228,1113.962402 1165.108276,1121.091431 1150.800293,1129.132080 
	C1135.340820,1137.819702 1120.200195,1147.072876 1104.864258,1155.982788 
	C1098.631714,1159.603760 1092.157104,1162.715454 1085.941040,1166.473633 
	C1055.640381,1184.792969 1031.735596,1210.262207 1007.298584,1235.123901 
	C997.408264,1245.186035 991.280762,1257.767700 987.759338,1271.506104 
	C987.350708,1273.100342 987.251221,1274.953247 986.348633,1276.213989 
	C976.391235,1290.121216 976.443298,1306.775146 974.753174,1322.535522 
	C973.317200,1335.926514 974.441162,1349.791016 976.082458,1363.244751 
	C977.221069,1372.578369 979.999939,1382.138550 984.133423,1390.574829 
	C989.618103,1401.769043 996.675476,1412.298706 1003.979187,1422.450562 
	C1007.553833,1427.418945 1013.211670,1430.888550 1018.432739,1435.545410 
z"/>
<path 
	d="
M652.781494,1273.113037 
	C653.160461,1269.841187 652.717407,1266.477417 657.465637,1265.667969 
	C657.465637,1269.080322 657.465637,1272.050049 657.465637,1276.037598 
	C655.580261,1275.071289 654.353210,1274.442383 652.781494,1273.113037 
z"/>
</svg>